<svg width="1355" height="1056" viewBox="0 0 1355 1056" fill="none" xmlns="http://www.w3.org/2000/svg">
<circle cx="1112.5" cy="891.5" r="36" stroke="#E06440"/>
<mask id="path-2-outside-1_187_129" maskUnits="userSpaceOnUse" x="1099" y="881" width="26" height="14" fill="black">
<rect fill="white" x="1099" y="881" width="26" height="14"/>
<path d="M1103.98 885.536C1103.98 884.597 1103.64 884.128 1102.94 884.128C1102.31 884.128 1101.65 884.277 1100.94 884.576L1100.88 884.464C1101.58 884.155 1102.29 884 1102.99 884C1103.35 884 1103.73 884.053 1104.11 884.16C1104.88 884.373 1105.26 884.832 1105.26 885.536C1105.26 886.091 1105.03 886.56 1104.58 886.944C1104.13 887.317 1103.58 887.611 1102.93 887.824C1103.54 887.888 1104.05 888.08 1104.48 888.4C1104.91 888.709 1105.12 889.141 1105.12 889.696C1105.12 890.251 1104.97 890.757 1104.67 891.216C1104.38 891.664 1104.01 892.043 1103.55 892.352C1102.6 893.003 1101.63 893.419 1100.64 893.6L1100.62 893.472C1101.42 893.259 1102.16 892.8 1102.83 892.096C1103.5 891.403 1103.84 890.624 1103.84 889.76C1103.84 889.173 1103.71 888.736 1103.46 888.448C1103.21 888.149 1102.92 887.979 1102.59 887.936C1102.4 888.011 1102.24 888.053 1102.11 888.064L1102.05 887.952C1102.6 887.781 1103.06 887.483 1103.42 887.056C1103.8 886.619 1103.98 886.112 1103.98 885.536ZM1108.13 886.8C1108.26 886.544 1108.49 886.304 1108.83 886.08C1109.17 885.845 1109.67 885.728 1110.32 885.728C1110.98 885.728 1111.62 885.968 1112.24 886.448C1112.87 886.928 1113.18 887.643 1113.18 888.592C1113.18 889.541 1112.89 890.357 1112.29 891.04C1111.69 891.723 1110.83 892.064 1109.71 892.064C1107.66 892.064 1106.64 890.811 1106.64 888.304C1106.64 887.131 1106.94 886.059 1107.54 885.088C1108.24 883.968 1109.27 883.189 1110.64 882.752C1111.41 882.517 1112.27 882.4 1113.22 882.4L1113.2 882.512C1111.31 882.512 1109.94 883.12 1109.07 884.336C1108.6 884.997 1108.29 885.819 1108.13 886.8ZM1108.05 887.2C1107.95 887.861 1107.9 888.469 1107.9 889.024C1107.9 889.963 1108.08 890.683 1108.43 891.184C1108.79 891.685 1109.26 891.936 1109.84 891.936C1110.42 891.936 1110.9 891.616 1111.3 890.976C1111.7 890.336 1111.9 889.541 1111.9 888.592C1111.9 887.632 1111.72 886.939 1111.34 886.512C1110.98 886.075 1110.54 885.856 1110.02 885.856C1109.66 885.856 1109.32 885.957 1108.99 886.16C1108.67 886.363 1108.43 886.571 1108.27 886.784C1108.12 886.987 1108.05 887.125 1108.05 887.2ZM1114.64 888C1114.64 886.88 1115.07 885.925 1115.91 885.136C1116.76 884.336 1117.82 883.936 1119.08 883.936C1120.33 883.936 1121.36 884.267 1122.15 884.928C1122.95 885.579 1123.35 886.603 1123.35 888C1123.35 889.12 1122.92 890.08 1122.07 890.88C1121.23 891.669 1120.17 892.064 1118.92 892.064C1117.66 892.064 1116.63 891.739 1115.83 891.088C1115.04 890.427 1114.64 889.397 1114.64 888ZM1115.92 888C1115.92 889.344 1116.21 890.336 1116.77 890.976C1117.34 891.616 1118.06 891.936 1118.95 891.936C1119.83 891.936 1120.57 891.552 1121.17 890.784C1121.77 890.016 1122.07 889.088 1122.07 888C1122.07 886.656 1121.79 885.664 1121.22 885.024C1120.65 884.384 1119.93 884.064 1119.04 884.064C1118.16 884.064 1117.42 884.448 1116.82 885.216C1116.22 885.984 1115.92 886.912 1115.92 888Z"/>
</mask>
<path d="M1103.98 885.536C1103.98 884.597 1103.64 884.128 1102.94 884.128C1102.31 884.128 1101.65 884.277 1100.94 884.576L1100.88 884.464C1101.58 884.155 1102.29 884 1102.99 884C1103.35 884 1103.73 884.053 1104.11 884.16C1104.88 884.373 1105.26 884.832 1105.26 885.536C1105.26 886.091 1105.03 886.56 1104.58 886.944C1104.13 887.317 1103.58 887.611 1102.93 887.824C1103.54 887.888 1104.05 888.08 1104.48 888.4C1104.91 888.709 1105.12 889.141 1105.12 889.696C1105.12 890.251 1104.97 890.757 1104.67 891.216C1104.38 891.664 1104.01 892.043 1103.55 892.352C1102.6 893.003 1101.63 893.419 1100.64 893.6L1100.62 893.472C1101.42 893.259 1102.16 892.8 1102.83 892.096C1103.5 891.403 1103.84 890.624 1103.84 889.76C1103.84 889.173 1103.71 888.736 1103.46 888.448C1103.21 888.149 1102.92 887.979 1102.59 887.936C1102.4 888.011 1102.24 888.053 1102.11 888.064L1102.05 887.952C1102.6 887.781 1103.06 887.483 1103.42 887.056C1103.8 886.619 1103.98 886.112 1103.98 885.536ZM1108.13 886.8C1108.26 886.544 1108.49 886.304 1108.83 886.08C1109.17 885.845 1109.67 885.728 1110.32 885.728C1110.98 885.728 1111.62 885.968 1112.24 886.448C1112.87 886.928 1113.18 887.643 1113.18 888.592C1113.18 889.541 1112.89 890.357 1112.29 891.04C1111.69 891.723 1110.83 892.064 1109.71 892.064C1107.66 892.064 1106.64 890.811 1106.64 888.304C1106.64 887.131 1106.94 886.059 1107.54 885.088C1108.24 883.968 1109.27 883.189 1110.64 882.752C1111.41 882.517 1112.27 882.4 1113.22 882.4L1113.2 882.512C1111.31 882.512 1109.94 883.12 1109.07 884.336C1108.6 884.997 1108.29 885.819 1108.13 886.8ZM1108.05 887.2C1107.95 887.861 1107.9 888.469 1107.9 889.024C1107.9 889.963 1108.08 890.683 1108.43 891.184C1108.79 891.685 1109.26 891.936 1109.84 891.936C1110.42 891.936 1110.9 891.616 1111.3 890.976C1111.7 890.336 1111.9 889.541 1111.9 888.592C1111.9 887.632 1111.72 886.939 1111.34 886.512C1110.98 886.075 1110.54 885.856 1110.02 885.856C1109.66 885.856 1109.32 885.957 1108.99 886.16C1108.67 886.363 1108.43 886.571 1108.27 886.784C1108.12 886.987 1108.05 887.125 1108.05 887.2ZM1114.64 888C1114.64 886.88 1115.07 885.925 1115.91 885.136C1116.76 884.336 1117.82 883.936 1119.08 883.936C1120.33 883.936 1121.36 884.267 1122.15 884.928C1122.95 885.579 1123.35 886.603 1123.35 888C1123.35 889.12 1122.92 890.08 1122.07 890.88C1121.23 891.669 1120.17 892.064 1118.92 892.064C1117.66 892.064 1116.63 891.739 1115.83 891.088C1115.04 890.427 1114.64 889.397 1114.64 888ZM1115.92 888C1115.92 889.344 1116.21 890.336 1116.77 890.976C1117.34 891.616 1118.06 891.936 1118.95 891.936C1119.83 891.936 1120.57 891.552 1121.17 890.784C1121.77 890.016 1122.07 889.088 1122.07 888C1122.07 886.656 1121.79 885.664 1121.22 885.024C1120.65 884.384 1119.93 884.064 1119.04 884.064C1118.16 884.064 1117.42 884.448 1116.82 885.216C1116.22 885.984 1115.92 886.912 1115.92 888Z" fill="#E06440"/>
<path d="M1100.94 884.576L1100.08 885.072L1100.52 885.844L1101.33 885.497L1100.94 884.576ZM1100.88 884.464L1100.48 883.548L1099.46 883.995L1100.01 884.96L1100.88 884.464ZM1104.11 884.16L1103.84 885.124H1103.84L1104.11 884.16ZM1104.58 886.944L1105.22 887.712L1105.22 887.711L1104.58 886.944ZM1102.93 887.824L1102.62 886.874L1102.82 888.819L1102.93 887.824ZM1104.48 888.4L1103.88 889.2L1103.89 889.205L1103.89 889.21L1104.48 888.4ZM1104.67 891.216L1103.83 890.67L1103.83 890.675L1104.67 891.216ZM1103.55 892.352L1102.99 891.523L1102.99 891.527L1103.55 892.352ZM1100.64 893.6L1099.65 893.724L1099.78 894.774L1100.82 894.584L1100.64 893.6ZM1100.62 893.472L1100.37 892.506L1099.52 892.731L1099.63 893.596L1100.62 893.472ZM1102.83 892.096L1102.11 891.4L1102.11 891.406L1102.83 892.096ZM1103.46 888.448L1102.68 889.083L1102.7 889.098L1102.71 889.112L1103.46 888.448ZM1102.59 887.936L1102.72 886.944L1102.47 886.912L1102.23 887.004L1102.59 887.936ZM1102.11 888.064L1101.24 888.56L1101.56 889.113L1102.2 889.061L1102.11 888.064ZM1102.05 887.952L1101.75 886.996L1100.56 887.364L1101.18 888.448L1102.05 887.952ZM1103.42 887.056L1102.66 886.407L1102.66 886.408L1103.42 887.056ZM1103.98 885.536H1104.98C1104.98 884.973 1104.89 884.369 1104.53 883.886C1104.13 883.346 1103.54 883.128 1102.94 883.128V884.128V885.128C1103.01 885.128 1103.01 885.138 1102.99 885.127C1102.96 885.114 1102.93 885.091 1102.92 885.074C1102.91 885.063 1102.93 885.081 1102.95 885.159C1102.97 885.238 1102.98 885.36 1102.98 885.536H1103.98ZM1102.94 884.128V883.128C1102.15 883.128 1101.36 883.315 1100.55 883.655L1100.94 884.576L1101.33 885.497C1101.94 885.239 1102.47 885.128 1102.94 885.128V884.128ZM1100.94 884.576L1101.81 884.08L1101.75 883.968L1100.88 884.464L1100.01 884.96L1100.08 885.072L1100.94 884.576ZM1100.88 884.464L1101.28 885.38C1101.87 885.121 1102.44 885 1102.99 885V884V883C1102.14 883 1101.3 883.189 1100.48 883.548L1100.88 884.464ZM1102.99 884V885C1103.26 885 1103.54 885.039 1103.84 885.124L1104.11 884.16L1104.38 883.196C1103.92 883.068 1103.45 883 1102.99 883V884ZM1104.11 884.16L1103.84 885.124C1104.1 885.194 1104.18 885.276 1104.21 885.306C1104.22 885.324 1104.26 885.375 1104.26 885.536H1105.26H1106.26C1106.26 884.993 1106.11 884.462 1105.74 884.022C1105.38 883.593 1104.89 883.34 1104.38 883.196L1104.11 884.16ZM1105.26 885.536H1104.26C1104.26 885.769 1104.19 885.966 1103.93 886.177L1104.58 886.944L1105.22 887.711C1105.88 887.154 1106.26 886.412 1106.26 885.536H1105.26ZM1104.58 886.944L1103.94 886.176C1103.6 886.455 1103.17 886.693 1102.62 886.874L1102.93 887.824L1103.24 888.774C1103.99 888.528 1104.66 888.179 1105.22 887.712L1104.58 886.944ZM1102.93 887.824L1102.82 888.819C1103.28 888.866 1103.62 889.003 1103.88 889.2L1104.48 888.4L1105.08 887.6C1104.49 887.157 1103.79 886.91 1103.03 886.829L1102.93 887.824ZM1104.48 888.4L1103.89 889.21C1104.04 889.32 1104.12 889.442 1104.12 889.696H1105.12H1106.12C1106.12 888.841 1105.77 888.099 1105.07 887.59L1104.48 888.4ZM1105.12 889.696H1104.12C1104.12 890.06 1104.03 890.376 1103.83 890.67L1104.67 891.216L1105.51 891.762C1105.92 891.138 1106.12 890.442 1106.12 889.696H1105.12ZM1104.67 891.216L1103.83 890.675C1103.62 891.005 1103.34 891.287 1102.99 891.523L1103.55 892.352L1104.11 893.181C1104.68 892.799 1105.15 892.323 1105.51 891.757L1104.67 891.216ZM1103.55 892.352L1102.99 891.527C1102.14 892.11 1101.3 892.464 1100.46 892.616L1100.64 893.6L1100.82 894.584C1101.97 894.374 1103.07 893.896 1104.12 893.177L1103.55 892.352ZM1100.64 893.6L1101.63 893.476L1101.62 893.348L1100.62 893.472L1099.63 893.596L1099.65 893.724L1100.64 893.6ZM1100.62 893.472L1100.88 894.438C1101.89 894.17 1102.78 893.6 1103.56 892.786L1102.83 892.096L1102.11 891.406C1101.54 892 1100.96 892.348 1100.37 892.506L1100.62 893.472ZM1102.83 892.096L1103.55 892.792C1104.38 891.936 1104.84 890.915 1104.84 889.76H1103.84H1102.84C1102.84 890.333 1102.63 890.869 1102.11 891.4L1102.83 892.096ZM1103.84 889.76H1104.84C1104.84 889.052 1104.69 888.33 1104.2 887.784L1103.46 888.448L1102.71 889.112C1102.74 889.142 1102.84 889.295 1102.84 889.76H1103.84ZM1103.46 888.448L1104.23 887.813C1103.85 887.351 1103.34 887.025 1102.72 886.944L1102.59 887.936L1102.46 888.928C1102.5 888.933 1102.57 888.947 1102.68 889.083L1103.46 888.448ZM1102.59 887.936L1102.23 887.004C1102.16 887.031 1102.11 887.048 1102.07 887.058C1102.03 887.068 1102.02 887.068 1102.03 887.067L1102.11 888.064L1102.2 889.061C1102.46 889.039 1102.72 888.959 1102.95 888.868L1102.59 887.936ZM1102.11 888.064L1102.98 887.568L1102.92 887.456L1102.05 887.952L1101.18 888.448L1101.24 888.56L1102.11 888.064ZM1102.05 887.952L1102.34 888.908C1103.07 888.683 1103.7 888.281 1104.19 887.704L1103.42 887.056L1102.66 886.408C1102.43 886.684 1102.13 886.879 1101.75 886.996L1102.05 887.952ZM1103.42 887.056L1104.18 887.705C1104.71 887.087 1104.98 886.35 1104.98 885.536H1103.98H1102.98C1102.98 885.874 1102.88 886.151 1102.66 886.407L1103.42 887.056ZM1108.13 886.8L1107.14 886.639L1109.02 887.247L1108.13 886.8ZM1108.83 886.08L1109.38 886.916L1109.39 886.91L1109.4 886.904L1108.83 886.08ZM1112.24 886.448L1111.63 887.238L1111.63 887.243L1112.24 886.448ZM1112.29 891.04L1111.54 890.381V890.381L1112.29 891.04ZM1107.54 885.088L1106.69 884.556L1106.68 884.564L1107.54 885.088ZM1110.64 882.752L1110.35 881.796L1110.33 881.8L1110.64 882.752ZM1113.22 882.4L1114.21 882.541L1114.37 881.4H1113.22V882.4ZM1113.2 882.512V883.512H1114.07L1114.19 882.653L1113.2 882.512ZM1109.07 884.336L1108.26 883.757L1108.26 883.757L1109.07 884.336ZM1108.05 887.2L1109.04 887.344L1109.05 887.272V887.2H1108.05ZM1108.43 891.184L1107.61 891.759L1107.62 891.77L1108.43 891.184ZM1111.3 890.976L1110.45 890.441L1110.44 890.451L1111.3 890.976ZM1111.34 886.512L1110.57 887.15L1110.58 887.161L1110.59 887.171L1111.34 886.512ZM1108.99 886.16L1108.47 885.307L1108.46 885.311L1108.46 885.315L1108.99 886.16ZM1108.27 886.784L1107.47 886.184L1107.47 886.191L1108.27 886.784ZM1108.13 886.8L1109.02 887.247C1109.04 887.202 1109.13 887.082 1109.38 886.916L1108.83 886.08L1108.28 885.244C1107.85 885.526 1107.47 885.886 1107.23 886.353L1108.13 886.8ZM1108.83 886.08L1109.4 886.904C1109.5 886.832 1109.76 886.728 1110.32 886.728V885.728V884.728C1109.57 884.728 1108.84 884.858 1108.27 885.256L1108.83 886.08ZM1110.32 885.728V886.728C1110.72 886.728 1111.15 886.868 1111.63 887.238L1112.24 886.448L1112.85 885.658C1112.09 885.068 1111.24 884.728 1110.32 884.728V885.728ZM1112.24 886.448L1111.63 887.243C1111.96 887.495 1112.18 887.885 1112.18 888.592H1113.18H1114.18C1114.18 887.4 1113.77 886.361 1112.85 885.653L1112.24 886.448ZM1113.18 888.592H1112.18C1112.18 889.311 1111.97 889.89 1111.54 890.381L1112.29 891.04L1113.04 891.699C1113.81 890.824 1114.18 889.771 1114.18 888.592H1113.18ZM1112.29 891.04L1111.54 890.381C1111.17 890.797 1110.62 891.064 1109.71 891.064V892.064V893.064C1111.05 893.064 1112.21 892.648 1113.04 891.699L1112.29 891.04ZM1109.71 892.064V891.064C1108.9 891.064 1108.46 890.826 1108.18 890.491C1107.88 890.118 1107.64 889.447 1107.64 888.304H1106.64H1105.64C1105.64 889.668 1105.91 890.877 1106.63 891.757C1107.38 892.676 1108.47 893.064 1109.71 893.064V892.064ZM1106.64 888.304H1107.64C1107.64 887.31 1107.89 886.42 1108.39 885.612L1107.54 885.088L1106.68 884.564C1105.99 885.697 1105.64 886.951 1105.64 888.304H1106.64ZM1107.54 885.088L1108.38 885.62C1108.95 884.717 1109.78 884.076 1110.95 883.704L1110.64 882.752L1110.33 881.8C1108.77 882.302 1107.53 883.219 1106.69 884.556L1107.54 885.088ZM1110.64 882.752L1110.93 883.708C1111.59 883.507 1112.35 883.4 1113.22 883.4V882.4V881.4C1112.19 881.4 1111.23 881.527 1110.35 881.796L1110.64 882.752ZM1113.22 882.4L1112.23 882.259L1112.21 882.371L1113.2 882.512L1114.19 882.653L1114.21 882.541L1113.22 882.4ZM1113.2 882.512V881.512C1111.08 881.512 1109.36 882.207 1108.26 883.757L1109.07 884.336L1109.89 884.915C1110.51 884.033 1111.54 883.512 1113.2 883.512V882.512ZM1109.07 884.336L1108.26 883.757C1107.68 884.568 1107.32 885.541 1107.14 886.639L1108.13 886.8L1109.11 886.961C1109.26 886.097 1109.52 885.427 1109.89 884.915L1109.07 884.336ZM1108.05 887.2L1107.06 887.056C1106.96 887.756 1106.9 888.413 1106.9 889.024H1107.9H1108.9C1108.9 888.526 1108.95 887.967 1109.04 887.344L1108.05 887.2ZM1107.9 889.024H1106.9C1106.9 890.066 1107.1 891.021 1107.61 891.759L1108.43 891.184L1109.25 890.609C1109.06 890.344 1108.9 889.859 1108.9 889.024H1107.9ZM1108.43 891.184L1107.62 891.77C1108.16 892.509 1108.92 892.936 1109.84 892.936V891.936V890.936C1109.61 890.936 1109.43 890.862 1109.24 890.598L1108.43 891.184ZM1109.84 891.936V892.936C1110.87 892.936 1111.63 892.334 1112.15 891.501L1111.3 890.976L1110.44 890.451C1110.17 890.898 1109.96 890.936 1109.84 890.936V891.936ZM1111.3 890.976L1112.14 891.511C1112.67 890.675 1112.9 889.683 1112.9 888.592H1111.9H1110.9C1110.9 889.4 1110.73 889.997 1110.45 890.441L1111.3 890.976ZM1111.9 888.592H1112.9C1112.9 887.545 1112.71 886.552 1112.1 885.853L1111.34 886.512L1110.59 887.171C1110.73 887.325 1110.9 887.719 1110.9 888.592H1111.9ZM1111.34 886.512L1112.11 885.874C1111.58 885.23 1110.86 884.856 1110.02 884.856V885.856V886.856C1110.21 886.856 1110.38 886.919 1110.57 887.15L1111.34 886.512ZM1110.02 885.856V884.856C1109.46 884.856 1108.94 885.018 1108.47 885.307L1108.99 886.16L1109.51 887.013C1109.7 886.896 1109.87 886.856 1110.02 886.856V885.856ZM1108.99 886.16L1108.46 885.315C1108.07 885.558 1107.73 885.842 1107.47 886.184L1108.27 886.784L1109.07 887.384C1109.14 887.299 1109.27 887.168 1109.53 887.005L1108.99 886.16ZM1108.27 886.784L1107.47 886.191C1107.38 886.31 1107.29 886.438 1107.22 886.566C1107.18 886.653 1107.05 886.896 1107.05 887.2H1108.05H1109.05C1109.05 887.272 1109.04 887.331 1109.03 887.371C1109.02 887.411 1109.01 887.442 1109.01 887.462C1108.99 887.5 1108.98 887.519 1108.98 887.514C1108.99 887.511 1108.99 887.498 1109.01 887.473C1109.03 887.448 1109.05 887.417 1109.08 887.377L1108.27 886.784ZM1115.91 885.136L1116.59 885.866L1116.59 885.866L1115.91 885.136ZM1122.15 884.928L1121.51 885.695L1121.51 885.699L1121.52 885.704L1122.15 884.928ZM1122.07 890.88L1122.75 891.61L1122.75 891.61L1122.07 890.88ZM1115.83 891.088L1115.19 891.855L1115.19 891.859L1115.2 891.864L1115.83 891.088ZM1116.77 890.976L1117.52 890.314L1116.77 890.976ZM1121.17 890.784L1121.96 891.398V891.398L1121.17 890.784ZM1121.22 885.024L1121.97 884.362V884.362L1121.22 885.024ZM1116.82 885.216L1116.03 884.602V884.602L1116.82 885.216ZM1114.64 888H1115.64C1115.64 887.166 1115.94 886.473 1116.59 885.866L1115.91 885.136L1115.22 884.406C1114.19 885.378 1113.64 886.594 1113.64 888H1114.64ZM1115.91 885.136L1116.59 885.866C1117.24 885.253 1118.05 884.936 1119.08 884.936V883.936V882.936C1117.58 882.936 1116.28 883.419 1115.22 884.406L1115.91 885.136ZM1119.08 883.936V884.936C1120.15 884.936 1120.93 885.215 1121.51 885.695L1122.15 884.928L1122.79 884.161C1121.78 883.318 1120.52 882.936 1119.08 882.936V883.936ZM1122.15 884.928L1121.52 885.704C1122.01 886.103 1122.35 886.79 1122.35 888H1123.35H1124.35C1124.35 886.415 1123.89 885.054 1122.78 884.152L1122.15 884.928ZM1123.35 888H1122.35C1122.35 888.83 1122.05 889.53 1121.38 890.15L1122.07 890.88L1122.75 891.61C1123.8 890.63 1124.35 889.41 1124.35 888H1123.35ZM1122.07 890.88L1121.38 890.15C1120.74 890.75 1119.95 891.064 1118.92 891.064V892.064V893.064C1120.4 893.064 1121.71 892.589 1122.75 891.61L1122.07 890.88ZM1118.92 892.064V891.064C1117.83 891.064 1117.04 890.788 1116.46 890.312L1115.83 891.088L1115.2 891.864C1116.21 892.689 1117.48 893.064 1118.92 893.064V892.064ZM1115.83 891.088L1116.47 890.321C1115.98 889.912 1115.64 889.213 1115.64 888H1114.64H1113.64C1113.64 889.582 1114.1 890.942 1115.19 891.855L1115.83 891.088ZM1115.92 888H1114.92C1114.92 889.455 1115.22 890.735 1116.02 891.638L1116.77 890.976L1117.52 890.314C1117.19 889.937 1116.92 889.233 1116.92 888H1115.92ZM1116.77 890.976L1116.02 891.638C1116.79 892.502 1117.79 892.936 1118.95 892.936V891.936V890.936C1118.34 890.936 1117.89 890.73 1117.52 890.314L1116.77 890.976ZM1118.95 891.936V892.936C1120.18 892.936 1121.2 892.382 1121.96 891.398L1121.17 890.784L1120.38 890.17C1119.95 890.722 1119.49 890.936 1118.95 890.936V891.936ZM1121.17 890.784L1121.96 891.398C1122.71 890.434 1123.07 889.283 1123.07 888H1122.07H1121.07C1121.07 888.893 1120.83 889.598 1120.38 890.17L1121.17 890.784ZM1122.07 888H1123.07C1123.07 886.545 1122.77 885.265 1121.97 884.362L1121.22 885.024L1120.47 885.686C1120.8 886.063 1121.07 886.767 1121.07 888H1122.07ZM1121.22 885.024L1121.97 884.362C1121.21 883.498 1120.2 883.064 1119.04 883.064V884.064V885.064C1119.65 885.064 1120.1 885.27 1120.47 885.686L1121.22 885.024ZM1119.04 884.064V883.064C1117.82 883.064 1116.8 883.618 1116.03 884.602L1116.82 885.216L1117.61 885.83C1118.04 885.278 1118.5 885.064 1119.04 885.064V884.064ZM1116.82 885.216L1116.03 884.602C1115.28 885.566 1114.92 886.717 1114.92 888H1115.92H1116.92C1116.92 887.107 1117.16 886.402 1117.61 885.83L1116.82 885.216Z" fill="#E06440" mask="url(#path-2-outside-1_187_129)"/>
<path d="M115 630H114.5V630.281L114.74 630.427L115 630ZM250 712L249.74 712.427L249.86 712.5H250V712ZM294 712L289 709.113V714.887L294 712ZM115 333.5H114.5V630H115H115.5V333.5H115ZM115 630L114.74 630.427L249.74 712.427L250 712L250.26 711.573L115.26 629.573L115 630ZM250 712V712.5H289.5V712V711.5H250V712Z" fill="#E06440"/>
<circle cx="115" cy="630" r="47.5" stroke="#E06440"/>
<mask id="path-6-outside-2_187_129" maskUnits="userSpaceOnUse" x="88" y="625" width="17" height="14" fill="black">
<rect fill="white" x="88" y="625" width="17" height="14"/>
<path d="M91.3936 630.8C91.5216 630.544 91.7563 630.304 92.0976 630.08C92.439 629.845 92.935 629.728 93.5856 629.728C94.247 629.728 94.887 629.968 95.5056 630.448C96.135 630.928 96.4496 631.643 96.4496 632.592C96.4496 633.541 96.151 634.357 95.5536 635.04C94.9563 635.723 94.0976 636.064 92.9776 636.064C90.9296 636.064 89.9056 634.811 89.9056 632.304C89.9056 631.131 90.2043 630.059 90.8016 629.088C91.5056 627.968 92.5403 627.189 93.9056 626.752C94.6736 626.517 95.5323 626.4 96.4816 626.4L96.4656 626.512C94.5776 626.512 93.2016 627.12 92.3376 628.336C91.8683 628.997 91.5536 629.819 91.3936 630.8ZM91.3136 631.2C91.2176 631.861 91.1696 632.469 91.1696 633.024C91.1696 633.963 91.3456 634.683 91.6976 635.184C92.0603 635.685 92.5296 635.936 93.1056 635.936C93.6816 635.936 94.167 635.616 94.5616 634.976C94.967 634.336 95.1696 633.541 95.1696 632.592C95.1696 631.632 94.983 630.939 94.6096 630.512C94.247 630.075 93.8043 629.856 93.2816 629.856C92.9296 629.856 92.5883 629.957 92.2576 630.16C91.9376 630.363 91.6976 630.571 91.5376 630.784C91.3883 630.987 91.3136 631.125 91.3136 631.2ZM97.9094 627.984H103.173C101.019 633.061 99.5467 636.267 98.7574 637.6L98.6294 637.552C99.472 636.101 100.757 633.333 102.485 629.248L97.9094 629.232V627.984Z"/>
</mask>
<path d="M91.3936 630.8C91.5216 630.544 91.7563 630.304 92.0976 630.08C92.439 629.845 92.935 629.728 93.5856 629.728C94.247 629.728 94.887 629.968 95.5056 630.448C96.135 630.928 96.4496 631.643 96.4496 632.592C96.4496 633.541 96.151 634.357 95.5536 635.04C94.9563 635.723 94.0976 636.064 92.9776 636.064C90.9296 636.064 89.9056 634.811 89.9056 632.304C89.9056 631.131 90.2043 630.059 90.8016 629.088C91.5056 627.968 92.5403 627.189 93.9056 626.752C94.6736 626.517 95.5323 626.4 96.4816 626.4L96.4656 626.512C94.5776 626.512 93.2016 627.12 92.3376 628.336C91.8683 628.997 91.5536 629.819 91.3936 630.8ZM91.3136 631.2C91.2176 631.861 91.1696 632.469 91.1696 633.024C91.1696 633.963 91.3456 634.683 91.6976 635.184C92.0603 635.685 92.5296 635.936 93.1056 635.936C93.6816 635.936 94.167 635.616 94.5616 634.976C94.967 634.336 95.1696 633.541 95.1696 632.592C95.1696 631.632 94.983 630.939 94.6096 630.512C94.247 630.075 93.8043 629.856 93.2816 629.856C92.9296 629.856 92.5883 629.957 92.2576 630.16C91.9376 630.363 91.6976 630.571 91.5376 630.784C91.3883 630.987 91.3136 631.125 91.3136 631.2ZM97.9094 627.984H103.173C101.019 633.061 99.5467 636.267 98.7574 637.6L98.6294 637.552C99.472 636.101 100.757 633.333 102.485 629.248L97.9094 629.232V627.984Z" fill="#E06440"/>
<path d="M91.3936 630.8L90.4067 630.639L92.2881 631.247L91.3936 630.8ZM92.0976 630.08L92.6463 630.916L92.6553 630.91L92.6642 630.904L92.0976 630.08ZM95.5056 630.448L94.8926 631.238L94.8992 631.243L95.5056 630.448ZM95.5536 635.04L94.801 634.381V634.381L95.5536 635.04ZM90.8016 629.088L89.955 628.556L89.95 628.564L90.8016 629.088ZM93.9056 626.752L93.6134 625.796L93.6006 625.8L93.9056 626.752ZM96.4816 626.4L97.4716 626.541L97.6346 625.4H96.4816V626.4ZM96.4656 626.512V627.512H97.3329L97.4556 626.653L96.4656 626.512ZM92.3376 628.336L91.5224 627.757L91.5221 627.757L92.3376 628.336ZM91.3136 631.2L92.3033 631.344L92.3136 631.272V631.2H91.3136ZM91.6976 635.184L90.8791 635.759L90.8874 635.77L91.6976 635.184ZM94.5616 634.976L93.7167 634.441L93.7105 634.451L94.5616 634.976ZM94.6096 630.512L93.8399 631.15L93.8483 631.161L93.857 631.171L94.6096 630.512ZM92.2576 630.16L91.7351 629.307L91.7288 629.311L91.7226 629.315L92.2576 630.16ZM91.5376 630.784L90.7376 630.184L90.7326 630.191L91.5376 630.784ZM91.3936 630.8L92.2881 631.247C92.3105 631.202 92.3931 631.082 92.6463 630.916L92.0976 630.08L91.549 629.244C91.1195 629.526 90.7328 629.886 90.4992 630.353L91.3936 630.8ZM92.0976 630.08L92.6642 630.904C92.7684 630.832 93.0305 630.728 93.5856 630.728V629.728V628.728C92.8394 628.728 92.1095 628.858 91.5311 629.256L92.0976 630.08ZM93.5856 629.728V630.728C93.9861 630.728 94.4159 630.868 94.8926 631.238L95.5056 630.448L96.1186 629.658C95.3581 629.068 94.5079 628.728 93.5856 628.728V629.728ZM95.5056 630.448L94.8992 631.243C95.2299 631.495 95.4496 631.885 95.4496 632.592H96.4496H97.4496C97.4496 631.4 97.04 630.361 96.1121 629.653L95.5056 630.448ZM96.4496 632.592H95.4496C95.4496 633.311 95.231 633.89 94.801 634.381L95.5536 635.04L96.3062 635.699C97.071 634.824 97.4496 633.771 97.4496 632.592H96.4496ZM95.5536 635.04L94.801 634.381C94.4371 634.797 93.8826 635.064 92.9776 635.064V636.064V637.064C94.3126 637.064 95.4755 636.648 96.3062 635.699L95.5536 635.04ZM92.9776 636.064V635.064C92.1671 635.064 91.7213 634.826 91.448 634.491C91.1431 634.118 90.9056 633.447 90.9056 632.304H89.9056H88.9056C88.9056 633.668 89.1801 634.877 89.8992 635.757C90.6499 636.676 91.7401 637.064 92.9776 637.064V636.064ZM89.9056 632.304H90.9056C90.9056 631.31 91.1559 630.42 91.6533 629.612L90.8016 629.088L89.95 628.564C89.2527 629.697 88.9056 630.951 88.9056 632.304H89.9056ZM90.8016 629.088L91.6483 629.62C92.216 628.717 93.0495 628.076 94.2107 627.704L93.9056 626.752L93.6006 625.8C92.0311 626.302 90.7952 627.219 89.955 628.556L90.8016 629.088ZM93.9056 626.752L94.1978 627.708C94.8557 627.507 95.6138 627.4 96.4816 627.4V626.4V625.4C95.4508 625.4 94.4915 625.527 93.6134 625.796L93.9056 626.752ZM96.4816 626.4L95.4917 626.259L95.4757 626.371L96.4656 626.512L97.4556 626.653L97.4716 626.541L96.4816 626.4ZM96.4656 626.512V625.512C94.3498 625.512 92.6234 626.207 91.5224 627.757L92.3376 628.336L93.1528 628.915C93.7798 628.033 94.8055 627.512 96.4656 627.512V626.512ZM92.3376 628.336L91.5221 627.757C90.9468 628.568 90.5858 629.541 90.4067 630.639L91.3936 630.8L92.3806 630.961C92.5215 630.097 92.7898 629.427 93.1531 628.915L92.3376 628.336ZM91.3136 631.2L90.324 631.056C90.2224 631.756 90.1696 632.413 90.1696 633.024H91.1696H92.1696C92.1696 632.526 92.2128 631.967 92.3033 631.344L91.3136 631.2ZM91.1696 633.024H90.1696C90.1696 634.066 90.3614 635.021 90.8792 635.759L91.6976 635.184L92.516 634.609C92.3299 634.344 92.1696 633.859 92.1696 633.024H91.1696ZM91.6976 635.184L90.8874 635.77C91.4218 636.509 92.1819 636.936 93.1056 636.936V635.936V634.936C92.8773 634.936 92.6988 634.862 92.5078 634.598L91.6976 635.184ZM93.1056 635.936V636.936C94.1337 636.936 94.899 636.334 95.4128 635.501L94.5616 634.976L93.7105 634.451C93.4349 634.898 93.2295 634.936 93.1056 634.936V635.936ZM94.5616 634.976L95.4064 635.511C95.936 634.675 96.1696 633.683 96.1696 632.592H95.1696H94.1696C94.1696 633.4 93.9979 633.997 93.7168 634.441L94.5616 634.976ZM95.1696 632.592H96.1696C96.1696 631.545 95.9737 630.552 95.3622 629.853L94.6096 630.512L93.857 631.171C93.9922 631.325 94.1696 631.719 94.1696 632.592H95.1696ZM94.6096 630.512L95.3794 629.874C94.8455 629.23 94.1302 628.856 93.2816 628.856V629.856V630.856C93.4784 630.856 93.6484 630.919 93.8399 631.15L94.6096 630.512ZM93.2816 629.856V628.856C92.7267 628.856 92.2065 629.018 91.7351 629.307L92.2576 630.16L92.7802 631.013C92.9701 630.896 93.1325 630.856 93.2816 630.856V629.856ZM92.2576 630.16L91.7226 629.315C91.3398 629.558 90.994 629.842 90.7376 630.184L91.5376 630.784L92.3376 631.384C92.4012 631.299 92.5355 631.168 92.7927 631.005L92.2576 630.16ZM91.5376 630.784L90.7326 630.191C90.6444 630.31 90.5579 630.438 90.4892 630.566C90.4422 630.653 90.3136 630.896 90.3136 631.2H91.3136H92.3136C92.3136 631.272 92.3048 631.331 92.2966 631.371C92.2882 631.411 92.2785 631.442 92.2715 631.462C92.2582 631.5 92.2474 631.519 92.2501 631.514C92.2517 631.511 92.2592 631.498 92.2757 631.473C92.2918 631.448 92.3137 631.417 92.3427 631.377L91.5376 630.784ZM97.9094 627.984V626.984H96.9094V627.984H97.9094ZM103.173 627.984L104.094 628.375L104.684 626.984H103.173V627.984ZM98.7574 637.6L98.4063 638.536L99.191 638.831L99.6179 638.109L98.7574 637.6ZM98.6294 637.552L97.7647 637.05L97.1703 638.073L98.2783 638.488L98.6294 637.552ZM102.485 629.248L103.406 629.638L103.992 628.253L102.489 628.248L102.485 629.248ZM97.9094 629.232H96.9094V630.229L97.9059 630.232L97.9094 629.232ZM97.9094 627.984V628.984H103.173V627.984V626.984H97.9094V627.984ZM103.173 627.984L102.253 627.593C100.091 632.689 98.6452 635.826 97.8969 637.091L98.7574 637.6L99.6179 638.109C100.448 636.707 101.947 633.434 104.094 628.375L103.173 627.984ZM98.7574 637.6L99.1085 636.664L98.9805 636.616L98.6294 637.552L98.2783 638.488L98.4063 638.536L98.7574 637.6ZM98.6294 637.552L99.4941 638.054C100.373 636.542 101.68 633.719 103.406 629.638L102.485 629.248L101.564 628.858C99.8346 632.948 98.5714 635.661 97.7647 637.05L98.6294 637.552ZM102.485 629.248L102.489 628.248L97.9129 628.232L97.9094 629.232L97.9059 630.232L102.482 630.248L102.485 629.248ZM97.9094 629.232H98.9094V627.984H97.9094H96.9094V629.232H97.9094Z" fill="#E06440" mask="url(#path-6-outside-2_187_129)"/>
<circle cx="177" cy="391" r="390.5" stroke="black"/>
<path d="M907.366 614.721L905.36 611.245L906.225 610.745L906.087 610.506L906.362 610.507L906.362 609.507L910.376 609.507L910.375 610.507L914.389 610.508L914.389 609.508L918.403 609.509L918.403 610.509L922.416 610.51L922.417 609.51L926.43 609.51L926.43 610.51L930.444 610.511L930.444 609.511L934.458 609.512L934.458 610.512L938.472 610.513L938.472 609.513L942.486 609.513L942.486 610.513L946.5 610.514L946.5 609.514L950.513 609.515L950.513 610.515L954.527 610.516L954.527 609.516L958.541 609.516L958.541 610.516L962.554 610.517L962.554 609.517L966.568 609.518L966.568 610.518L970.582 610.519L970.582 609.519L974.595 609.519L974.595 610.519L978.609 610.52L978.609 609.52L982.623 609.521L982.623 610.521L986.636 610.522L986.636 609.522L990.65 609.522L990.65 610.522L994.664 610.523L994.664 609.523L998.677 609.524L998.677 610.524L1002.69 610.525L1002.69 609.525L1006.7 609.525L1006.7 610.525L1010.72 610.526L1010.72 609.526L1014.73 609.527L1014.73 610.527L1018.75 610.528L1018.75 609.528L1022.76 609.528L1022.76 610.528L1026.77 610.529L1026.77 609.529L1030.79 609.53L1030.79 610.53L1034.8 610.531L1034.8 609.531L1038.81 609.531L1038.81 610.531L1042.83 610.532L1042.83 609.532L1046.84 609.533L1046.84 610.533L1050.85 610.534L1050.86 609.534L1054.87 609.534L1054.87 610.534L1058.88 610.535L1058.88 609.535L1062.9 609.536L1062.9 610.536L1066.91 610.537L1066.91 609.537L1070.92 609.538L1070.92 610.538L1074.94 610.538L1074.94 609.538L1078.95 609.539L1078.95 610.539L1082.97 610.54L1082.97 609.54L1086.98 609.541L1086.98 610.541L1090.99 610.541L1090.99 609.541L1095.01 609.542L1095.01 610.542L1099.02 610.543L1099.02 609.543L1103.03 609.544L1103.03 610.544L1107.05 610.544L1107.05 609.544L1111.06 609.545L1111.06 610.545L1115.07 610.546L1115.07 609.546L1119.09 609.547L1119.09 610.547L1123.1 610.547L1123.1 609.547L1127.12 609.548L1127.12 610.548L1131.13 610.549L1131.13 609.549L1135.14 609.55L1135.14 610.55L1139.16 610.55L1139.16 609.55L1143.17 609.551L1143.17 610.551L1147.18 610.552L1147.18 609.552L1151.2 609.553L1151.2 610.553L1155.21 610.553L1155.21 609.553L1159.23 609.554L1159.23 610.554L1163.24 610.555L1163.24 609.555L1167.25 609.556L1167.25 610.556L1171.27 610.556L1171.27 609.556L1175.28 609.557L1175.28 610.557L1179.29 610.558L1179.29 609.558L1183.31 609.559L1183.31 610.559L1187.32 610.559L1187.32 609.559L1191.33 609.56L1191.33 610.56L1195.35 610.561L1195.35 609.561L1199.36 609.562L1199.36 610.562L1203.38 610.562L1203.38 609.562L1207.39 609.563L1207.39 610.563L1211.4 610.564L1211.4 609.564L1215.42 609.565L1215.42 610.565L1219.43 610.565L1219.43 609.565L1223.45 609.566L1223.44 610.566L1227.46 610.567L1227.46 609.567L1231.47 609.568L1231.47 610.568L1235.49 610.568L1235.49 609.568L1239.5 609.569L1239.5 610.569L1243.51 610.57L1243.51 609.57L1247.53 609.571L1247.53 610.571L1251.54 610.572L1251.54 609.572L1255.55 609.572L1255.55 610.572L1259.57 610.573L1259.57 609.573L1263.58 609.574L1263.58 610.574L1267.6 610.575L1267.6 609.575L1271.61 609.575L1271.61 610.575L1275.62 610.576L1275.62 609.576L1279.64 609.577L1279.64 610.577L1283.65 610.578L1283.65 609.578L1287.66 609.578L1287.66 610.578L1291.68 610.579L1291.68 609.579L1295.69 609.58L1295.69 610.58L1299.7 610.581L1299.7 609.581L1303.72 609.581L1303.72 610.581L1307.73 610.582L1307.73 609.582L1311.75 609.583L1311.75 610.583L1315.76 610.584L1315.76 609.584L1319.77 609.584L1319.77 610.584L1320.05 610.584L1319.91 610.822L1320.78 611.322L1318.77 614.798L1317.9 614.298L1315.9 617.773L1316.76 618.273L1314.75 621.748L1313.89 621.248L1311.88 624.724L1312.75 625.225L1310.74 628.7L1309.87 628.2L1307.87 631.676L1308.73 632.176L1306.72 635.651L1305.86 635.151L1303.85 638.626L1304.72 639.126L1302.71 642.603L1301.84 642.102L1299.84 645.578L1300.7 646.078L1298.69 649.554L1297.83 649.054L1295.82 652.529L1296.69 653.029L1294.68 656.504L1293.81 656.004L1291.81 659.48L1292.67 659.981L1290.66 663.456L1289.8 662.956L1287.79 666.431L1288.66 666.931L1286.65 670.407L1285.78 669.907L1283.78 673.382L1284.64 673.882L1282.63 677.359L1281.77 676.858L1279.76 680.334L1280.63 680.834L1278.62 684.309L1277.75 683.809L1275.75 687.285L1276.61 687.785L1274.6 691.26L1273.74 690.76L1271.73 694.236L1272.6 694.737L1270.59 698.212L1269.72 697.712L1267.72 701.187L1268.58 701.687L1266.57 705.163L1265.71 704.663L1263.7 708.138L1264.57 708.638L1262.56 712.115L1261.69 711.614L1259.69 715.09L1260.55 715.59L1258.54 719.066L1258.54 719.065L1257.68 718.565L1255.67 722.041L1256.54 722.541L1256.54 722.542L1254.53 726.017L1254.53 726.016L1253.66 725.516L1251.66 728.992L1252.52 729.493L1252.52 729.494L1250.51 732.969L1250.51 732.968L1249.65 732.468L1247.64 735.943L1248.51 736.443L1248.51 736.444L1246.5 739.92L1246.5 739.919L1245.63 739.419L1243.63 742.894L1244.49 743.394L1244.49 743.395L1242.48 746.871L1242.48 746.87L1241.62 746.369L1239.61 749.846L1240.48 750.346L1240.48 750.347L1238.47 753.822L1238.47 753.821L1237.6 753.321L1235.6 756.797L1236.46 757.297L1236.46 757.298L1234.45 760.773L1234.45 760.772L1233.59 760.272L1231.58 763.747L1232.45 764.248L1232.45 764.249L1230.44 767.725L1230.44 767.724L1229.57 767.224L1227.57 770.699L1228.43 771.199L1228.43 771.2L1226.42 774.675L1225.56 774.175L1223.55 777.65L1224.42 778.15L1224.42 778.151L1222.41 781.627L1222.41 781.626L1221.54 781.125L1219.54 784.602L1220.4 785.102L1218.39 788.578L1218.39 788.577L1217.53 788.077L1215.52 791.553L1216.39 792.053L1214.38 795.529L1214.38 795.528L1213.51 795.028L1211.51 798.503L1212.37 799.004L1212.37 799.005L1210.36 802.48L1209.5 801.98L1207.49 805.455L1208.36 805.955L1208.36 805.956L1206.35 809.431L1205.48 808.931L1203.48 812.406L1204.34 812.906L1202.33 816.383L1202.33 816.382L1201.47 815.881L1199.46 819.358L1200.33 819.858L1198.32 823.333L1197.45 822.833L1195.45 826.308L1196.31 826.808L1196.31 826.809L1194.3 830.284L1193.44 829.784L1191.43 833.259L1192.3 833.76L1192.3 833.761L1190.29 837.236L1189.42 836.736L1187.42 840.211L1188.28 840.711L1186.27 844.187L1186.27 844.186L1185.41 843.686L1183.4 847.162L1184.27 847.662L1182.26 851.138L1181.39 850.637L1179.39 854.114L1180.25 854.614L1178.24 858.089L1177.38 857.589L1175.37 861.064L1176.24 861.564L1176.24 861.565L1174.23 865.04L1173.36 864.54L1171.36 868.015L1172.22 868.516L1170.21 871.992L1169.35 871.492L1167.34 874.967L1168.21 875.467L1166.2 878.942L1165.33 878.442L1163.33 881.918L1164.19 882.418L1162.18 885.894L1161.32 885.393L1159.31 888.869L1160.18 889.369L1158.17 892.845L1157.3 892.345L1155.3 895.82L1156.16 896.32L1154.15 899.796L1153.29 899.296L1151.28 902.771L1152.15 903.272L1150.14 906.747L1149.27 906.247L1147.27 909.723L1148.13 910.223L1146.12 913.698L1145.26 913.198L1143.25 916.674L1144.12 917.174L1142.11 920.65L1141.24 920.149L1139.24 923.625L1140.1 924.125L1138.09 927.601L1137.23 927.101L1135.22 930.576L1136.09 931.076L1134.08 934.551L1133.21 934.051L1131.21 937.527L1132.07 938.028L1130.06 941.503L1129.2 941.003L1127.19 944.479L1128.06 944.979L1126.05 948.454L1125.18 947.954L1123.18 951.429L1124.04 951.929L1122.03 955.406L1121.17 954.905L1119.16 958.381L1120.03 958.881L1118.02 962.357L1117.15 961.857L1115.15 965.332L1116.01 965.832L1114 969.307L1113.14 968.807L1113 969.045L1112.86 968.808L1112 969.308L1112 969.309L1109.99 965.832L1109.99 965.831L1110.86 965.331L1108.85 961.855L1107.99 962.355L1107.99 962.356L1105.98 958.88L1105.98 958.879L1106.85 958.379L1104.84 954.902L1103.97 955.402L1103.97 955.403L1101.97 951.927L1101.97 951.926L1102.83 951.426L1100.83 947.949L1099.96 948.449L1099.96 948.45L1097.95 944.974L1097.95 944.973L1098.82 944.473L1096.81 940.997L1095.95 941.497L1095.95 941.498L1093.94 938.021L1093.94 938.02L1094.81 937.521L1092.8 934.045L1091.94 934.544L1091.94 934.545L1089.93 931.068L1089.93 931.067L1090.79 930.568L1088.79 927.092L1087.92 927.592L1087.92 927.592L1085.92 924.117L1085.92 924.116L1086.78 923.616L1084.78 920.139L1083.91 920.639L1083.91 920.64L1081.9 917.164L1081.9 917.163L1082.77 916.663L1080.76 913.187L1079.9 913.687L1079.9 913.688L1077.89 910.211L1077.89 910.21L1078.76 909.71L1076.75 906.234L1075.89 906.734L1073.88 903.257L1073.88 903.257L1074.75 902.757L1072.74 899.281L1071.87 899.781L1069.87 896.305L1070.73 895.805L1068.73 892.328L1067.86 892.828L1065.86 889.352L1066.72 888.852L1064.71 885.375L1063.85 885.875L1061.84 882.399L1061.84 882.399L1062.71 881.899L1060.7 878.423L1059.84 878.923L1057.83 875.446L1057.83 875.446L1058.7 874.946L1056.69 871.47L1055.82 871.97L1053.82 868.493L1053.82 868.493L1054.68 867.993L1052.68 864.517L1051.81 865.017L1049.81 861.541L1050.67 861.042L1048.66 857.565L1047.8 858.064L1045.79 854.588L1045.79 854.588L1046.66 854.089L1044.65 850.612L1043.79 851.112L1041.78 847.636L1041.78 847.636L1042.65 847.136L1040.64 843.66L1039.77 844.16L1037.77 840.683L1037.77 840.683L1038.63 840.183L1036.63 836.707L1035.76 837.207L1033.76 833.731L1034.62 833.231L1032.62 829.754L1031.75 830.254L1029.74 826.778L1029.74 826.778L1030.61 826.278L1028.6 822.801L1027.74 823.301L1025.73 819.825L1025.73 819.825L1026.6 819.325L1024.59 815.849L1023.73 816.349L1021.72 812.872L1021.72 812.872L1022.58 812.372L1020.58 808.896L1019.71 809.396L1017.71 805.92L1017.71 805.919L1018.57 805.419L1016.57 801.943L1015.7 802.443L1013.69 798.967L1013.69 798.967L1014.56 798.467L1012.55 794.99L1011.69 795.49L1011.69 795.491L1009.68 792.014L1009.68 792.014L1010.55 791.514L1008.54 788.037L1007.67 788.537L1007.67 788.538L1005.67 785.061L1005.67 785.061L1006.54 784.562L1004.53 781.086L1003.66 781.585L1001.66 778.109L1001.66 778.108L1002.52 777.609L1000.52 774.133L999.651 774.633L997.644 771.157L997.644 771.156L998.51 770.656L996.504 767.18L995.638 767.68L995.638 767.681L993.633 764.204L993.632 764.204L994.498 763.704L992.492 760.227L991.626 760.727L991.626 760.728L989.619 757.252L989.619 757.251L990.486 756.751L988.479 753.275L987.614 753.775L985.607 750.299L985.607 750.298L986.473 749.798L984.467 746.322L983.602 746.822L981.595 743.346L981.595 743.345L982.461 742.845L980.455 739.369L979.588 739.869L979.588 739.87L977.583 736.393L977.582 736.393L978.449 735.893L976.442 732.416L975.576 732.916L975.576 732.917L973.57 729.441L973.57 729.44L974.435 728.94L972.429 725.463L971.564 725.963L971.564 725.964L969.558 722.488L969.558 722.487L970.423 721.987L968.417 718.511L967.552 719.011L965.545 715.535L965.545 715.534L966.41 715.034L964.404 711.558L963.539 712.058L963.539 712.059L961.533 708.582L961.533 708.581L962.398 708.082L960.392 704.606L959.527 705.105L959.527 705.106L957.52 701.63L957.52 701.629L958.386 701.13L956.38 697.653L955.514 698.153L955.514 698.153L953.508 694.678L953.508 694.677L954.373 694.177L952.367 690.701L951.502 691.201L951.502 691.202L949.496 687.725L949.496 687.724L950.361 687.224L948.355 683.748L947.49 684.248L947.49 684.249L945.483 680.772L945.483 680.771L946.349 680.271L944.342 676.795L943.477 677.295L943.477 677.296L941.471 673.819L942.336 673.319L940.33 669.842L939.465 670.342L937.459 666.866L938.324 666.366L936.318 662.889L935.452 663.389L933.446 659.913L934.312 659.413L932.305 655.937L931.44 656.437L929.434 652.96L929.433 652.96L930.299 652.46L928.293 648.984L927.428 649.484L925.422 646.008L926.287 645.508L924.281 642.031L923.415 642.531L921.409 639.055L922.275 638.555L920.268 635.078L919.403 635.578L917.397 632.102L918.262 631.603L916.256 628.127L915.391 628.626L913.384 625.149L913.383 625.149L914.25 624.65L912.244 621.174L911.378 621.673L909.372 618.197L909.371 618.197L910.237 617.697L908.231 614.221L907.366 614.721Z" stroke="black" stroke-width="2" stroke-dasharray="4 4"/>
<path d="M940 407L939.672 407.377L939.813 407.5H940V407ZM1191 407L1191.39 406.688L1191.24 406.5H1191V407ZM1246.94 477.497C1247.22 477.527 1247.47 477.33 1247.5 477.055L1247.99 472.583C1248.02 472.308 1247.83 472.061 1247.55 472.031C1247.28 472 1247.03 472.198 1247 472.472L1246.56 476.448L1242.58 476.006C1242.31 475.976 1242.06 476.173 1242.03 476.448C1242 476.722 1242.2 476.97 1242.47 477L1246.94 477.497ZM878 353L877.672 353.377L882.838 357.877L883.167 357.5L883.495 357.123L878.328 352.623L878 353ZM893.5 366.5L893.172 366.877L903.505 375.877L903.833 375.5L904.162 375.123L893.828 366.123L893.5 366.5ZM914.167 384.5L913.838 384.877L924.172 393.877L924.5 393.5L924.828 393.123L914.495 384.123L914.167 384.5ZM934.833 402.5L934.505 402.877L939.672 407.377L940 407L940.328 406.623L935.162 402.123L934.833 402.5ZM940 407V407.5H946.275V407V406.5H940V407ZM958.825 407V407.5H971.375V407V406.5H958.825V407ZM983.925 407V407.5H996.475V407V406.5H983.925V407ZM1009.02 407V407.5H1021.57V407V406.5H1009.02V407ZM1034.12 407V407.5H1046.68V407V406.5H1034.12V407ZM1059.23 407V407.5H1071.78V407V406.5H1059.23V407ZM1084.33 407V407.5H1096.88V407V406.5H1084.33V407ZM1109.43 407V407.5H1121.98V407V406.5H1109.43V407ZM1134.53 407V407.5H1147.08V407V406.5H1134.53V407ZM1159.63 407V407.5H1172.18V407V406.5H1159.63V407ZM1184.73 407V407.5H1191V407V406.5H1184.73V407ZM1191 407L1190.61 407.312L1194.11 411.687L1194.5 411.375L1194.89 411.063L1191.39 406.688L1191 407ZM1201.5 420.125L1201.11 420.437L1208.11 429.187L1208.5 428.875L1208.89 428.563L1201.89 419.813L1201.5 420.125ZM1215.5 437.625L1215.11 437.937L1222.11 446.687L1222.5 446.375L1222.89 446.063L1215.89 437.313L1215.5 437.625ZM1229.5 455.125L1229.11 455.437L1236.11 464.187L1236.5 463.875L1236.89 463.563L1229.89 454.813L1229.5 455.125ZM1243.5 472.625L1243.11 472.937L1246.61 477.312L1247 477L1247.39 476.688L1243.89 472.313L1243.5 472.625Z" fill="black"/>
<path d="M1113 831L1113.38 830.673L1113 830.231L1112.62 830.677L1113 831ZM1197 928L1196.62 928.327L1196.77 928.5H1197V928ZM1339 928H1339.5V927.5H1339V928ZM1338.65 1055.35C1338.84 1055.55 1339.16 1055.55 1339.35 1055.35L1342.54 1052.17C1342.73 1051.98 1342.73 1051.66 1342.54 1051.46C1342.34 1051.27 1342.02 1051.27 1341.83 1051.46L1339 1054.29L1336.17 1051.46C1335.98 1051.27 1335.66 1051.27 1335.46 1051.46C1335.27 1051.66 1335.27 1051.98 1335.46 1052.17L1338.65 1055.35ZM1031 928L1031.38 928.323L1035.48 923.473L1035.1 923.15L1034.72 922.827L1030.62 927.677L1031 928ZM1043.3 913.45L1043.68 913.773L1051.88 904.073L1051.5 903.75L1051.12 903.427L1042.92 913.127L1043.3 913.45ZM1059.7 894.05L1060.08 894.373L1068.28 884.673L1067.9 884.35L1067.52 884.027L1059.32 893.727L1059.7 894.05ZM1076.1 874.65L1076.48 874.973L1084.68 865.273L1084.3 864.95L1083.92 864.627L1075.72 874.327L1076.1 874.65ZM1092.5 855.25L1092.88 855.573L1101.08 845.873L1100.7 845.55L1100.32 845.227L1092.12 854.927L1092.5 855.25ZM1108.9 835.85L1109.28 836.173L1113.38 831.323L1113 831L1112.62 830.677L1108.52 835.527L1108.9 835.85ZM1113 831L1112.62 831.327L1116.82 836.177L1117.2 835.85L1117.58 835.523L1113.38 830.673L1113 831ZM1125.6 845.55L1125.22 845.877L1133.62 855.577L1134 855.25L1134.38 854.923L1125.98 845.223L1125.6 845.55ZM1142.4 864.95L1142.02 865.277L1150.42 874.977L1150.8 874.65L1151.18 874.323L1142.78 864.623L1142.4 864.95ZM1159.2 884.35L1158.82 884.677L1167.22 894.377L1167.6 894.05L1167.98 893.723L1159.58 884.023L1159.2 884.35ZM1176 903.75L1175.62 904.077L1184.02 913.777L1184.4 913.45L1184.78 913.123L1176.38 903.423L1176 903.75ZM1192.8 923.15L1192.42 923.477L1196.62 928.327L1197 928L1197.38 927.673L1193.18 922.823L1192.8 923.15ZM1197 928V928.5H1202.92V928V927.5H1197V928ZM1214.75 928V928.5H1226.58V928V927.5H1214.75V928ZM1238.42 928V928.5H1250.25V928V927.5H1238.42V928ZM1262.08 928V928.5H1273.92V928V927.5H1262.08V928ZM1285.75 928V928.5H1297.58V928V927.5H1285.75V928ZM1309.42 928V928.5H1321.25V928V927.5H1309.42V928ZM1333.08 928V928.5H1339V928V927.5H1333.08V928ZM1339 928H1338.5V934.35H1339H1339.5V928H1339ZM1339 947.05H1338.5V959.75H1339H1339.5V947.05H1339ZM1339 972.45H1338.5V985.15H1339H1339.5V972.45H1339ZM1339 997.85H1338.5V1010.55H1339H1339.5V997.85H1339ZM1339 1023.25H1338.5V1035.95H1339H1339.5V1023.25H1339ZM1339 1048.65H1338.5V1055H1339H1339.5V1048.65H1339Z" fill="#E06440"/>
</svg>
