<svg width="850" height="850" viewBox="0 0 850 850" fill="none" xmlns="http://www.w3.org/2000/svg">
<rect width="850" height="850" fill="white"/>
<path d="M363 664H362.5V664.281L362.74 664.427L363 664ZM498 746L497.74 746.427L497.86 746.5H498V746ZM542 746L537 743.113V748.887L542 746ZM363 367.5H362.5V664H363H363.5V367.5H363ZM363 664L362.74 664.427L497.74 746.427L498 746L498.26 745.573L363.26 663.573L363 664ZM498 746V746.5H537.5V746V745.5H498V746Z" fill="#E06440"/>
<circle cx="363" cy="664" r="47.5" stroke="#E06440"/>
<mask id="path-3-outside-1_210_4" maskUnits="userSpaceOnUse" x="336" y="659" width="17" height="14" fill="black">
<rect fill="white" x="336" y="659" width="17" height="14"/>
<path d="M339.394 664.8C339.522 664.544 339.756 664.304 340.098 664.08C340.439 663.845 340.935 663.728 341.586 663.728C342.247 663.728 342.887 663.968 343.506 664.448C344.135 664.928 344.45 665.643 344.45 666.592C344.45 667.541 344.151 668.357 343.554 669.04C342.956 669.723 342.098 670.064 340.978 670.064C338.93 670.064 337.906 668.811 337.906 666.304C337.906 665.131 338.204 664.059 338.802 663.088C339.506 661.968 340.54 661.189 341.906 660.752C342.674 660.517 343.532 660.4 344.482 660.4L344.466 660.512C342.578 660.512 341.202 661.12 340.338 662.336C339.868 662.997 339.554 663.819 339.394 664.8ZM339.314 665.2C339.218 665.861 339.17 666.469 339.17 667.024C339.17 667.963 339.346 668.683 339.698 669.184C340.06 669.685 340.53 669.936 341.106 669.936C341.682 669.936 342.167 669.616 342.562 668.976C342.967 668.336 343.17 667.541 343.17 666.592C343.17 665.632 342.983 664.939 342.61 664.512C342.247 664.075 341.804 663.856 341.282 663.856C340.93 663.856 340.588 663.957 340.258 664.16C339.938 664.363 339.698 664.571 339.538 664.784C339.388 664.987 339.314 665.125 339.314 665.2ZM345.909 661.984H351.173C349.019 667.061 347.547 670.267 346.757 671.6L346.629 671.552C347.472 670.101 348.757 667.333 350.485 663.248L345.909 663.232V661.984Z"/>
</mask>
<path d="M339.394 664.8C339.522 664.544 339.756 664.304 340.098 664.08C340.439 663.845 340.935 663.728 341.586 663.728C342.247 663.728 342.887 663.968 343.506 664.448C344.135 664.928 344.45 665.643 344.45 666.592C344.45 667.541 344.151 668.357 343.554 669.04C342.956 669.723 342.098 670.064 340.978 670.064C338.93 670.064 337.906 668.811 337.906 666.304C337.906 665.131 338.204 664.059 338.802 663.088C339.506 661.968 340.54 661.189 341.906 660.752C342.674 660.517 343.532 660.4 344.482 660.4L344.466 660.512C342.578 660.512 341.202 661.12 340.338 662.336C339.868 662.997 339.554 663.819 339.394 664.8ZM339.314 665.2C339.218 665.861 339.17 666.469 339.17 667.024C339.17 667.963 339.346 668.683 339.698 669.184C340.06 669.685 340.53 669.936 341.106 669.936C341.682 669.936 342.167 669.616 342.562 668.976C342.967 668.336 343.17 667.541 343.17 666.592C343.17 665.632 342.983 664.939 342.61 664.512C342.247 664.075 341.804 663.856 341.282 663.856C340.93 663.856 340.588 663.957 340.258 664.16C339.938 664.363 339.698 664.571 339.538 664.784C339.388 664.987 339.314 665.125 339.314 665.2ZM345.909 661.984H351.173C349.019 667.061 347.547 670.267 346.757 671.6L346.629 671.552C347.472 670.101 348.757 667.333 350.485 663.248L345.909 663.232V661.984Z" fill="#E06440"/>
<path d="M339.394 664.8L338.407 664.639L340.288 665.247L339.394 664.8ZM340.098 664.08L340.646 664.916L340.655 664.91L340.664 664.904L340.098 664.08ZM343.506 664.448L342.893 665.238L342.899 665.243L343.506 664.448ZM343.554 669.04L342.801 668.381V668.381L343.554 669.04ZM338.802 663.088L337.955 662.556L337.95 662.564L338.802 663.088ZM341.906 660.752L341.613 659.796L341.601 659.8L341.906 660.752ZM344.482 660.4L345.472 660.541L345.635 659.4H344.482V660.4ZM344.466 660.512V661.512H345.333L345.456 660.653L344.466 660.512ZM340.338 662.336L339.522 661.757L339.522 661.757L340.338 662.336ZM339.314 665.2L340.303 665.344L340.314 665.272V665.2H339.314ZM339.698 669.184L338.879 669.759L338.887 669.77L339.698 669.184ZM342.562 668.976L341.717 668.441L341.71 668.451L342.562 668.976ZM342.61 664.512L341.84 665.15L341.848 665.161L341.857 665.171L342.61 664.512ZM340.258 664.16L339.735 663.307L339.729 663.311L339.723 663.315L340.258 664.16ZM339.538 664.784L338.738 664.184L338.733 664.191L339.538 664.784ZM339.394 664.8L340.288 665.247C340.31 665.202 340.393 665.082 340.646 664.916L340.098 664.08L339.549 663.244C339.119 663.526 338.733 663.886 338.499 664.353L339.394 664.8ZM340.098 664.08L340.664 664.904C340.768 664.832 341.031 664.728 341.586 664.728V663.728V662.728C340.839 662.728 340.11 662.858 339.531 663.256L340.098 664.08ZM341.586 663.728V664.728C341.986 664.728 342.416 664.868 342.893 665.238L343.506 664.448L344.119 663.658C343.358 663.068 342.508 662.728 341.586 662.728V663.728ZM343.506 664.448L342.899 665.243C343.23 665.495 343.45 665.885 343.45 666.592H344.45H345.45C345.45 665.4 345.04 664.361 344.112 663.653L343.506 664.448ZM344.45 666.592H343.45C343.45 667.311 343.231 667.89 342.801 668.381L343.554 669.04L344.306 669.699C345.071 668.824 345.45 667.771 345.45 666.592H344.45ZM343.554 669.04L342.801 668.381C342.437 668.797 341.883 669.064 340.978 669.064V670.064V671.064C342.313 671.064 343.475 670.648 344.306 669.699L343.554 669.04ZM340.978 670.064V669.064C340.167 669.064 339.721 668.826 339.448 668.491C339.143 668.118 338.906 667.447 338.906 666.304H337.906H336.906C336.906 667.668 337.18 668.877 337.899 669.757C338.65 670.676 339.74 671.064 340.978 671.064V670.064ZM337.906 666.304H338.906C338.906 665.31 339.156 664.42 339.653 663.612L338.802 663.088L337.95 662.564C337.253 663.697 336.906 664.951 336.906 666.304H337.906ZM338.802 663.088L339.648 663.62C340.216 662.717 341.05 662.076 342.211 661.704L341.906 660.752L341.601 659.8C340.031 660.302 338.795 661.219 337.955 662.556L338.802 663.088ZM341.906 660.752L342.198 661.708C342.856 661.507 343.614 661.4 344.482 661.4V660.4V659.4C343.451 659.4 342.492 659.527 341.613 659.796L341.906 660.752ZM344.482 660.4L343.492 660.259L343.476 660.371L344.466 660.512L345.456 660.653L345.472 660.541L344.482 660.4ZM344.466 660.512V659.512C342.35 659.512 340.623 660.207 339.522 661.757L340.338 662.336L341.153 662.915C341.78 662.033 342.805 661.512 344.466 661.512V660.512ZM340.338 662.336L339.522 661.757C338.947 662.568 338.586 663.541 338.407 664.639L339.394 664.8L340.381 664.961C340.521 664.097 340.79 663.427 341.153 662.915L340.338 662.336ZM339.314 665.2L338.324 665.056C338.222 665.756 338.17 666.413 338.17 667.024H339.17H340.17C340.17 666.526 340.213 665.967 340.303 665.344L339.314 665.2ZM339.17 667.024H338.17C338.17 668.066 338.361 669.021 338.879 669.759L339.698 669.184L340.516 668.609C340.33 668.344 340.17 667.859 340.17 667.024H339.17ZM339.698 669.184L338.887 669.77C339.422 670.509 340.182 670.936 341.106 670.936V669.936V668.936C340.877 668.936 340.699 668.862 340.508 668.598L339.698 669.184ZM341.106 669.936V670.936C342.134 670.936 342.899 670.334 343.413 669.501L342.562 668.976L341.71 668.451C341.435 668.898 341.23 668.936 341.106 668.936V669.936ZM342.562 668.976L343.406 669.511C343.936 668.675 344.17 667.683 344.17 666.592H343.17H342.17C342.17 667.4 341.998 667.997 341.717 668.441L342.562 668.976ZM343.17 666.592H344.17C344.17 665.545 343.974 664.552 343.362 663.853L342.61 664.512L341.857 665.171C341.992 665.325 342.17 665.719 342.17 666.592H343.17ZM342.61 664.512L343.379 663.874C342.846 663.23 342.13 662.856 341.282 662.856V663.856V664.856C341.478 664.856 341.648 664.919 341.84 665.15L342.61 664.512ZM341.282 663.856V662.856C340.727 662.856 340.206 663.018 339.735 663.307L340.258 664.16L340.78 665.013C340.97 664.896 341.133 664.856 341.282 664.856V663.856ZM340.258 664.16L339.723 663.315C339.34 663.558 338.994 663.842 338.738 664.184L339.538 664.784L340.338 665.384C340.401 665.299 340.535 665.168 340.793 665.005L340.258 664.16ZM339.538 664.784L338.733 664.191C338.644 664.31 338.558 664.438 338.489 664.566C338.442 664.653 338.314 664.896 338.314 665.2H339.314H340.314C340.314 665.272 340.305 665.331 340.297 665.371C340.288 665.411 340.278 665.442 340.271 665.462C340.258 665.5 340.247 665.519 340.25 665.514C340.252 665.511 340.259 665.498 340.276 665.473C340.292 665.448 340.314 665.417 340.343 665.377L339.538 664.784ZM345.909 661.984V660.984H344.909V661.984H345.909ZM351.173 661.984L352.094 662.375L352.684 660.984H351.173V661.984ZM346.757 671.6L346.406 672.536L347.191 672.831L347.618 672.109L346.757 671.6ZM346.629 671.552L345.765 671.05L345.17 672.073L346.278 672.488L346.629 671.552ZM350.485 663.248L351.406 663.638L351.992 662.253L350.489 662.248L350.485 663.248ZM345.909 663.232H344.909V664.229L345.906 664.232L345.909 663.232ZM345.909 661.984V662.984H351.173V661.984V660.984H345.909V661.984ZM351.173 661.984L350.253 661.593C348.091 666.689 346.645 669.826 345.897 671.091L346.757 671.6L347.618 672.109C348.448 670.707 349.947 667.434 352.094 662.375L351.173 661.984ZM346.757 671.6L347.108 670.664L346.98 670.616L346.629 671.552L346.278 672.488L346.406 672.536L346.757 671.6ZM346.629 671.552L347.494 672.054C348.373 670.542 349.68 667.719 351.406 663.638L350.485 663.248L349.564 662.858C347.835 666.948 346.571 669.661 345.765 671.05L346.629 671.552ZM350.485 663.248L350.489 662.248L345.913 662.232L345.909 663.232L345.906 664.232L350.482 664.248L350.485 663.248ZM345.909 663.232H346.909V661.984H345.909H344.909V663.232H345.909Z" fill="#E06440" mask="url(#path-3-outside-1_210_4)"/>
<circle cx="425" cy="425" r="390.5" stroke="black"/>
</svg>
