<svg width="1213" height="561" viewBox="0 0 1213 561" fill="none" xmlns="http://www.w3.org/2000/svg">
<path d="M1208.5 0.5H1209V0H1208.5V0.5ZM1208.15 560.854C1208.34 561.049 1208.66 561.049 1208.85 560.854L1212.04 557.672C1212.23 557.476 1212.23 557.16 1212.04 556.964C1211.84 556.769 1211.52 556.769 1211.33 556.964L1208.5 559.793L1205.67 556.964C1205.48 556.769 1205.16 556.769 1204.96 556.964C1204.77 557.16 1204.77 557.476 1204.96 557.672L1208.15 560.854ZM764 0.5V1H770.034V0.5V0H764V0.5ZM775.062 0.5V1H787.13V0.5V0H775.062V0.5ZM792.158 0.5V1H804.226V0.5V0H792.158V0.5ZM809.255 0.5V1H821.322V0.5V0H809.255V0.5ZM826.351 0.5V1H838.419V0.5V0H826.351V0.5ZM843.447 0.5V1H855.515V0.5V0H843.447V0.5ZM860.543 0.5V1H872.611V0.5V0H860.543V0.5ZM877.639 0.5V1H889.707V0.5V0H877.639V0.5ZM894.735 0.5V1H906.803V0.5V0H894.735V0.5ZM911.831 0.5V1H923.899V0.5V0H911.831V0.5ZM928.928 0.5V1H940.995V0.5V0H928.928V0.5ZM946.024 0.5V1H958.092V0.5V0H946.024V0.5ZM963.12 0.5V1H975.188V0.5V0H963.12V0.5ZM980.216 0.5V1H992.284V0.5V0H980.216V0.5ZM997.312 0.5V1H1009.38V0.5V0H997.312V0.5ZM1014.41 0.5V1H1026.48V0.5V0H1014.41V0.5ZM1031.5 0.5V1H1043.57V0.5V0H1031.5V0.5ZM1048.6 0.5V1H1060.67V0.5V0H1048.6V0.5ZM1065.7 0.5V1H1077.76V0.5V0H1065.7V0.5ZM1082.79 0.5V1H1094.86V0.5V0H1082.79V0.5ZM1099.89 0.5V1H1111.96V0.5V0H1099.89V0.5ZM1116.99 0.5V1H1129.05V0.5V0H1116.99V0.5ZM1134.08 0.5V1H1146.15V0.5V0H1134.08V0.5ZM1151.18 0.5V1H1163.25V0.5V0H1151.18V0.5ZM1168.27 0.5V1H1180.34V0.5V0H1168.27V0.5ZM1185.37 0.5V1H1197.44V0.5V0H1185.37V0.5ZM1202.47 0.5V1H1208.5V0.5V0H1202.47V0.5ZM1208.5 0.5H1208V6.48931H1208.5H1209V0.5H1208.5ZM1208.5 11.4804H1208V23.459H1208.5H1209V11.4804H1208.5ZM1208.5 28.4501H1208V40.4287H1208.5H1209V28.4501H1208.5ZM1208.5 45.4198H1208V57.3984H1208.5H1209V45.4198H1208.5ZM1208.5 62.3895H1208V74.3681H1208.5H1209V62.3895H1208.5ZM1208.5 79.3592H1208V91.3378H1208.5H1209V79.3592H1208.5ZM1208.5 96.3289H1208V108.307H1208.5H1209V96.3289H1208.5ZM1208.5 113.299H1208V125.277H1208.5H1209V113.299H1208.5ZM1208.5 130.268H1208V142.247H1208.5H1209V130.268H1208.5ZM1208.5 147.238H1208V159.217H1208.5H1209V147.238H1208.5ZM1208.5 164.208H1208V176.186H1208.5H1209V164.208H1208.5ZM1208.5 181.177H1208V193.156H1208.5H1209V181.177H1208.5ZM1208.5 198.147H1208V210.126H1208.5H1209V198.147H1208.5ZM1208.5 215.117H1208V227.095H1208.5H1209V215.117H1208.5ZM1208.5 232.086H1208V244.065H1208.5H1209V232.086H1208.5ZM1208.5 249.056H1208V261.035H1208.5H1209V249.056H1208.5ZM1208.5 266.026H1208V278.004H1208.5H1209V266.026H1208.5ZM1208.5 282.996H1208V294.974H1208.5H1209V282.996H1208.5ZM1208.5 299.965H1208V311.944H1208.5H1209V299.965H1208.5ZM1208.5 316.935H1208V328.914H1208.5H1209V316.935H1208.5ZM1208.5 333.905H1208V345.883H1208.5H1209V333.905H1208.5ZM1208.5 350.874H1208V362.853H1208.5H1209V350.874H1208.5ZM1208.5 367.844H1208V379.823H1208.5H1209V367.844H1208.5ZM1208.5 384.814H1208V396.792H1208.5H1209V384.814H1208.5ZM1208.5 401.783H1208V413.762H1208.5H1209V401.783H1208.5ZM1208.5 418.753H1208V430.732H1208.5H1209V418.753H1208.5ZM1208.5 435.723H1208V447.701H1208.5H1209V435.723H1208.5ZM1208.5 452.693H1208V464.671H1208.5H1209V452.693H1208.5ZM1208.5 469.662H1208V481.641H1208.5H1209V469.662H1208.5ZM1208.5 486.632H1208V498.611H1208.5H1209V486.632H1208.5ZM1208.5 503.602H1208V515.58H1208.5H1209V503.602H1208.5ZM1208.5 520.571H1208V532.55H1208.5H1209V520.571H1208.5ZM1208.5 537.541H1208V549.52H1208.5H1209V537.541H1208.5ZM1208.5 554.511H1208V560.5H1208.5H1209V554.511H1208.5Z" fill="#E06440"/>
<path d="M1208.5 45C1190.36 42.5 1171 33 1164 0.5" stroke="#E06440"/>
<path d="M1188.53 17.388C1188.44 17.58 1188.26 17.764 1188.01 17.94C1187.75 18.108 1187.37 18.192 1186.88 18.192C1186.39 18.192 1185.91 18.012 1185.44 17.652C1184.97 17.292 1184.74 16.756 1184.74 16.044C1184.74 15.332 1184.97 14.72 1185.41 14.208C1185.86 13.696 1186.51 13.44 1187.35 13.44C1188.88 13.44 1189.65 14.38 1189.65 16.26C1189.65 17.14 1189.42 17.944 1188.97 18.672C1188.45 19.512 1187.67 20.092 1186.64 20.412C1186.07 20.596 1185.43 20.688 1184.72 20.688L1184.73 20.604C1186.15 20.604 1187.18 20.148 1187.83 19.236C1188.18 18.74 1188.41 18.124 1188.53 17.388ZM1188.59 17.088C1188.67 16.592 1188.7 16.136 1188.7 15.72C1188.7 15.016 1188.57 14.476 1188.29 14.1C1188.03 13.724 1187.68 13.536 1187.25 13.536C1186.82 13.536 1186.45 13.776 1186.15 14.256C1185.85 14.736 1185.7 15.336 1185.7 16.056C1185.7 16.768 1185.84 17.288 1186.11 17.616C1186.39 17.936 1186.73 18.096 1187.12 18.096C1187.38 18.096 1187.63 18.02 1187.87 17.868C1188.12 17.716 1188.3 17.564 1188.41 17.412C1188.53 17.252 1188.59 17.144 1188.59 17.088ZM1190.6 16.5C1190.6 15.66 1190.92 14.944 1191.55 14.352C1192.19 13.752 1192.98 13.452 1193.93 13.452C1194.87 13.452 1195.64 13.7 1196.23 14.196C1196.83 14.684 1197.13 15.452 1197.13 16.5C1197.13 17.34 1196.81 18.06 1196.17 18.66C1195.54 19.252 1194.75 19.548 1193.81 19.548C1192.86 19.548 1192.09 19.304 1191.49 18.816C1190.9 18.32 1190.6 17.548 1190.6 16.5ZM1191.56 16.5C1191.56 17.508 1191.78 18.252 1192.2 18.732C1192.62 19.212 1193.17 19.452 1193.83 19.452C1194.5 19.452 1195.05 19.164 1195.5 18.588C1195.95 18.012 1196.17 17.316 1196.17 16.5C1196.17 15.492 1195.96 14.748 1195.54 14.268C1195.11 13.788 1194.57 13.548 1193.9 13.548C1193.24 13.548 1192.68 13.836 1192.24 14.412C1191.79 14.988 1191.56 15.684 1191.56 16.5Z" fill="#E06440"/>
<path d="M281 526.5H955" stroke="black" stroke-dasharray="12 12"/>
<circle cx="145" cy="328.5" r="144.5" stroke="#E06440"/>
<circle cx="91" cy="328.5" r="90.5" stroke="#E06440"/>
<path d="M86 333.5L85.5295 333.669L85.6484 334H86V333.5ZM22 155.5L20.9752 161.182L26.4082 159.228L22 155.5ZM325 333.5L320 330.613V336.387L325 333.5ZM23.5226 159.735L23.052 159.904L23.5295 161.232L24 161.062L24.4705 160.893L23.9931 159.565L23.5226 159.735ZM28 172.188L27.5295 172.357L31.5295 183.482L32 183.313L32.4705 183.143L28.4705 172.018L28 172.188ZM36 194.438L35.5295 194.607L39.5295 205.732L40 205.562L40.4705 205.393L36.4705 194.268L36 194.438ZM44 216.688L43.5295 216.857L47.5295 227.982L48 227.812L48.4705 227.643L44.4705 216.518L44 216.688ZM52 238.938L51.5295 239.107L55.5295 250.232L56 250.062L56.4705 249.893L52.4705 238.768L52 238.938ZM60 261.188L59.5295 261.357L63.5295 272.482L64 272.312L64.4705 272.143L60.4705 261.018L60 261.188ZM68 283.438L67.5295 283.607L71.5295 294.732L72 294.562L72.4705 294.393L68.4705 283.268L68 283.438ZM76 305.688L75.5295 305.857L79.5295 316.982L80 316.812L80.4705 316.643L76.4705 305.518L76 305.688ZM84 327.937L83.5295 328.107L85.5295 333.669L86 333.5L86.4705 333.331L84.4705 327.768L84 327.937ZM86 333.5V334H91.975V333.5V333H86V333.5ZM103.925 333.5V334H115.875V333.5V333H103.925V333.5ZM127.825 333.5V334H139.775V333.5V333H127.825V333.5ZM151.725 333.5V334H163.675V333.5V333H151.725V333.5ZM175.625 333.5V334H187.575V333.5V333H175.625V333.5ZM199.525 333.5V334H211.475V333.5V333H199.525V333.5ZM223.425 333.5V334H235.375V333.5V333H223.425V333.5ZM247.325 333.5V334H259.275V333.5V333H247.325V333.5ZM271.225 333.5V334H283.175V333.5V333H271.225V333.5ZM295.125 333.5V334H307.075V333.5V333H295.125V333.5ZM319.025 333.5V334H320.5V333.5V333H319.025V333.5Z" fill="black"/>
<path d="M117.276 343.488H121.224C119.608 347.296 118.504 349.7 117.912 350.7L117.816 350.664C118.448 349.576 119.412 347.5 120.708 344.436L117.276 344.424V343.488ZM123.966 343.596C123.358 343.596 122.826 343.824 122.37 344.28L122.31 344.208C122.846 343.736 123.406 343.5 123.99 343.5C124.582 343.5 125.03 343.62 125.334 343.86C125.638 344.1 125.79 344.464 125.79 344.952C125.79 345.432 125.506 346.156 124.938 347.124C124.37 348.084 123.738 348.844 123.042 349.404H125.358C125.91 349.404 126.242 349.244 126.354 348.924L126.426 348.96C126.426 348.992 126.398 349.048 126.342 349.128C126.286 349.2 126.222 349.26 126.15 349.308C125.958 349.436 125.694 349.5 125.358 349.5H121.89C122.642 348.932 123.318 348.156 123.918 347.172C124.526 346.188 124.83 345.436 124.83 344.916C124.83 344.036 124.542 343.596 123.966 343.596ZM127.166 346.5C127.166 345.66 127.482 344.944 128.114 344.352C128.754 343.752 129.546 343.452 130.49 343.452C131.434 343.452 132.202 343.7 132.794 344.196C133.394 344.684 133.694 345.452 133.694 346.5C133.694 347.34 133.374 348.06 132.734 348.66C132.102 349.252 131.314 349.548 130.37 349.548C129.426 349.548 128.654 349.304 128.054 348.816C127.462 348.32 127.166 347.548 127.166 346.5ZM128.126 346.5C128.126 347.508 128.338 348.252 128.762 348.732C129.186 349.212 129.73 349.452 130.394 349.452C131.058 349.452 131.614 349.164 132.062 348.588C132.51 348.012 132.734 347.316 132.734 346.5C132.734 345.492 132.522 344.748 132.098 344.268C131.674 343.788 131.13 343.548 130.466 343.548C129.802 343.548 129.246 343.836 128.798 344.412C128.35 344.988 128.126 345.684 128.126 346.5Z" fill="#E06440"/>
</svg>
