<svg width="634" height="332" viewBox="0 0 634 332" fill="none" xmlns="http://www.w3.org/2000/svg">
<path d="M136.929 61.564C134.934 61.564 133.457 60.9987 132.497 59.868C132.156 59.4627 131.878 58.924 131.665 58.252C131.452 57.58 131.345 56.764 131.345 55.804C131.345 54.844 131.5 53.9853 131.809 53.228C132.129 52.46 132.561 51.868 133.105 51.452C134.161 50.6733 135.436 50.284 136.929 50.284C137.356 50.284 137.772 50.3213 138.177 50.396C138.582 50.46 138.886 50.5293 139.089 50.604L139.377 50.716L139.329 50.876C138.604 50.588 137.804 50.444 136.929 50.444C135.798 50.444 134.854 50.812 134.097 51.548C133.521 52.092 133.116 52.892 132.881 53.948C132.742 54.5453 132.673 55.276 132.673 56.14C132.673 57.004 132.796 57.804 133.041 58.54C133.286 59.2653 133.564 59.804 133.873 60.156C134.193 60.508 134.577 60.7907 135.025 61.004C135.473 61.2067 135.83 61.324 136.097 61.356C136.364 61.388 136.684 61.404 137.057 61.404C137.441 61.404 137.873 61.3667 138.353 61.292C138.833 61.2173 139.196 61.148 139.441 61.084L139.809 60.972L139.857 61.132C139.046 61.42 138.07 61.564 136.929 61.564ZM143.092 61.5C142.153 61.5 141.561 61.2547 141.316 60.764C141.263 60.6573 141.236 60.5613 141.236 60.476V49.516H142.356V60.364C142.356 60.6733 142.415 60.9133 142.532 61.084C142.66 61.244 142.788 61.3293 142.916 61.34L143.092 61.372H143.588V61.5H143.092ZM146.114 61.5C145.676 61.5 145.34 61.404 145.106 61.212C144.882 61.02 144.764 60.828 144.754 60.636L144.738 60.364V53.5H145.858V60.364C145.858 60.6733 145.916 60.9133 146.034 61.084C146.162 61.244 146.284 61.3293 146.402 61.34L146.594 61.372H147.09V61.5H146.114ZM144.834 51.708C144.706 51.58 144.642 51.42 144.642 51.228C144.642 51.036 144.706 50.876 144.834 50.748C144.962 50.6093 145.122 50.54 145.314 50.54C145.506 50.54 145.666 50.6093 145.794 50.748C145.932 50.876 146.002 51.036 146.002 51.228C146.002 51.42 145.932 51.58 145.794 51.708C145.666 51.836 145.506 51.9 145.314 51.9C145.122 51.9 144.962 51.836 144.834 51.708ZM151.32 53.564C150.562 53.564 149.928 53.9267 149.416 54.652C148.914 55.3773 148.664 56.38 148.664 57.66C148.664 58.94 148.893 59.8893 149.352 60.508C149.821 61.1267 150.434 61.436 151.192 61.436C152.141 61.436 152.984 61.276 153.72 60.956L153.768 61.068C153.01 61.3987 152.125 61.564 151.112 61.564C150.098 61.564 149.256 61.244 148.584 60.604C147.912 59.964 147.576 58.9773 147.576 57.644C147.576 56.3107 147.928 55.276 148.632 54.54C149.336 53.804 150.232 53.436 151.32 53.436C151.928 53.436 152.488 53.5747 153 53.852C153.522 54.1293 153.906 54.5507 154.152 55.116H153.128C152.968 54.5933 152.722 54.204 152.392 53.948C152.072 53.692 151.714 53.564 151.32 53.564ZM156.559 49.5V57.468L160.079 53.5H160.239L157.631 56.444L161.071 61.5H159.951L156.991 57.148L156.559 57.644V61.5H155.439V49.5H156.559ZM170.836 61.564C169.716 61.564 168.804 61.244 168.1 60.604C167.396 59.964 167.044 58.9773 167.044 57.644C167.044 56.3107 167.407 55.276 168.132 54.54C168.868 53.804 169.796 53.436 170.916 53.436C172.047 53.436 172.964 53.756 173.668 54.396C174.372 55.036 174.724 56.0227 174.724 57.356C174.724 58.6893 174.356 59.724 173.62 60.46C172.895 61.196 171.967 61.564 170.836 61.564ZM170.948 53.564C170.138 53.564 169.466 53.9267 168.932 54.652C168.399 55.3667 168.132 56.3693 168.132 57.66C168.132 58.94 168.378 59.8893 168.868 60.508C169.359 61.1267 170.01 61.436 170.82 61.436C171.631 61.436 172.303 61.0787 172.836 60.364C173.37 59.6387 173.636 58.636 173.636 57.356C173.636 56.0653 173.391 55.1107 172.9 54.492C172.41 53.8733 171.759 53.564 170.948 53.564ZM182.325 61.5C181.888 61.5 181.552 61.404 181.317 61.212C181.093 61.02 180.976 60.828 180.965 60.636L180.949 60.364V55.34C180.949 54.4973 180.73 53.9587 180.293 53.724C180.069 53.6173 179.792 53.564 179.461 53.564C178.778 53.564 178.165 53.836 177.621 54.38C177.077 54.9133 176.805 55.3933 176.805 55.82V61.5H175.685V53.5H176.805V55.324C176.986 54.8653 177.322 54.4387 177.813 54.044C178.304 53.6387 178.842 53.436 179.429 53.436C180.016 53.436 180.49 53.4947 180.853 53.612C181.226 53.7187 181.498 53.8733 181.669 54.076C181.936 54.4067 182.069 54.8333 182.069 55.356V60.364C182.069 60.6733 182.128 60.9133 182.245 61.084C182.373 61.244 182.501 61.3293 182.629 61.34L182.805 61.372H183.301V61.5H182.325ZM195.496 61.5C194.771 61.5 194.275 61.3613 194.008 61.084C193.763 60.8493 193.64 60.6467 193.64 60.476V60.14C193.117 61.0893 192.28 61.564 191.128 61.564C189.784 61.564 189.021 60.956 188.84 59.74C188.819 59.612 188.808 59.484 188.808 59.356C188.808 59.2173 188.829 59.068 188.872 58.908C188.915 58.748 189.037 58.572 189.24 58.38C189.645 57.996 190.536 57.7613 191.912 57.676C192.253 57.644 192.568 57.628 192.856 57.628C193.144 57.628 193.405 57.6387 193.64 57.66V55.004C193.619 54.9933 193.619 54.9453 193.64 54.86C193.661 54.764 193.64 54.6467 193.576 54.508C193.523 54.3587 193.448 54.2147 193.352 54.076C193.256 53.9373 193.085 53.82 192.84 53.724C192.595 53.6173 192.275 53.564 191.88 53.564C191.485 53.564 191.021 53.6387 190.488 53.788C189.965 53.9267 189.581 54.0653 189.336 54.204L189.272 54.092C190.221 53.6547 191.187 53.436 192.168 53.436C193.267 53.436 193.992 53.6333 194.344 54.028C194.621 54.3373 194.76 54.6627 194.76 55.004V60.364C194.76 60.6733 194.819 60.9133 194.936 61.084C195.064 61.244 195.192 61.3293 195.32 61.34L195.496 61.372H195.992V61.5H195.496ZM191.384 61.436C191.949 61.436 192.456 61.244 192.904 60.86C193.363 60.4653 193.608 60.0867 193.64 59.724V57.788C193.352 57.7667 193.059 57.756 192.76 57.756C192.472 57.756 192.184 57.772 191.896 57.804C191.085 57.9 190.557 58.0813 190.312 58.348C190.067 58.6147 189.944 58.9827 189.944 59.452C189.944 59.5373 189.949 59.6333 189.96 59.74C190.056 60.8707 190.531 61.436 191.384 61.436ZM202.126 53.5H203.246V55.484C203.428 54.9933 203.764 54.5293 204.254 54.092C204.745 53.6547 205.3 53.436 205.918 53.436C208.084 53.436 209.166 54.7053 209.166 57.244C209.166 60.124 207.769 61.564 204.974 61.564C204.473 61.564 203.897 61.4467 203.246 61.212V65.5H202.126V53.5ZM205.902 53.564C205.241 53.564 204.644 53.852 204.11 54.428C203.577 54.9933 203.289 55.5053 203.246 55.964V61.068C203.897 61.3133 204.468 61.436 204.958 61.436C207.017 61.436 208.046 60.0333 208.046 57.228C208.046 54.7853 207.332 53.564 205.902 53.564ZM217.171 61.5C216.733 61.5 216.397 61.404 216.163 61.212C215.939 61.02 215.821 60.828 215.811 60.636L215.795 60.364V55.34C215.795 54.4973 215.571 53.9587 215.123 53.724C214.909 53.6173 214.637 53.564 214.307 53.564C213.645 53.564 213.048 53.836 212.515 54.38C211.992 54.9133 211.731 55.3933 211.731 55.82V61.5H210.611V49.516H211.731V55.324C211.901 54.8653 212.227 54.4387 212.707 54.044C213.187 53.6387 213.725 53.436 214.323 53.436C215.357 53.436 216.045 53.6173 216.387 53.98C216.739 54.332 216.915 54.7907 216.915 55.356V60.364C216.915 60.6733 216.973 60.9133 217.091 61.084C217.219 61.244 217.341 61.3293 217.459 61.34L217.651 61.372H218.147V61.5H217.171ZM222.649 61.564C221.529 61.564 220.617 61.244 219.913 60.604C219.209 59.964 218.857 58.9773 218.857 57.644C218.857 56.3107 219.219 55.276 219.945 54.54C220.681 53.804 221.609 53.436 222.729 53.436C223.859 53.436 224.777 53.756 225.481 54.396C226.185 55.036 226.537 56.0227 226.537 57.356C226.537 58.6893 226.169 59.724 225.433 60.46C224.707 61.196 223.779 61.564 222.649 61.564ZM222.761 53.564C221.95 53.564 221.278 53.9267 220.745 54.652C220.211 55.3667 219.945 56.3693 219.945 57.66C219.945 58.94 220.19 59.8893 220.681 60.508C221.171 61.1267 221.822 61.436 222.633 61.436C223.443 61.436 224.115 61.0787 224.649 60.364C225.182 59.6387 225.449 58.636 225.449 57.356C225.449 56.0653 225.203 55.1107 224.713 54.492C224.222 53.8733 223.571 53.564 222.761 53.564ZM227.73 53.628V53.5H228.066V51.9H229.186V53.5H231.634V53.628H229.186V59.452C229.186 60.1453 229.261 60.6467 229.41 60.956C229.57 61.2653 229.895 61.42 230.386 61.42C230.887 61.42 231.394 61.3187 231.906 61.116L231.954 61.244C231.421 61.4467 230.807 61.548 230.114 61.548C229.431 61.548 228.919 61.4093 228.578 61.132C228.237 60.844 228.066 60.2787 228.066 59.436V53.628H227.73ZM236.149 61.564C235.029 61.564 234.117 61.244 233.413 60.604C232.709 59.964 232.357 58.9773 232.357 57.644C232.357 56.3107 232.719 55.276 233.445 54.54C234.181 53.804 235.109 53.436 236.229 53.436C237.359 53.436 238.277 53.756 238.981 54.396C239.685 55.036 240.037 56.0227 240.037 57.356C240.037 58.6893 239.669 59.724 238.933 60.46C238.207 61.196 237.279 61.564 236.149 61.564ZM236.261 53.564C235.45 53.564 234.778 53.9267 234.245 54.652C233.711 55.3667 233.445 56.3693 233.445 57.66C233.445 58.94 233.69 59.8893 234.181 60.508C234.671 61.1267 235.322 61.436 236.133 61.436C236.943 61.436 237.615 61.0787 238.149 60.364C238.682 59.6387 238.949 58.636 238.949 57.356C238.949 56.0653 238.703 55.1107 238.213 54.492C237.722 53.8733 237.071 53.564 236.261 53.564ZM246.011 53.628V53.5H246.347V51.9H247.467V53.5H249.915V53.628H247.467V59.452C247.467 60.1453 247.542 60.6467 247.691 60.956C247.851 61.2653 248.177 61.42 248.667 61.42C249.169 61.42 249.675 61.3187 250.187 61.116L250.235 61.244C249.702 61.4467 249.089 61.548 248.395 61.548C247.713 61.548 247.201 61.4093 246.859 61.132C246.518 60.844 246.347 60.2787 246.347 59.436V53.628H246.011ZM254.43 61.564C253.31 61.564 252.398 61.244 251.694 60.604C250.99 59.964 250.638 58.9773 250.638 57.644C250.638 56.3107 251.001 55.276 251.726 54.54C252.462 53.804 253.39 53.436 254.51 53.436C255.641 53.436 256.558 53.756 257.262 54.396C257.966 55.036 258.318 56.0227 258.318 57.356C258.318 58.6893 257.95 59.724 257.214 60.46C256.489 61.196 255.561 61.564 254.43 61.564ZM254.542 53.564C253.731 53.564 253.059 53.9267 252.526 54.652C251.993 55.3667 251.726 56.3693 251.726 57.66C251.726 58.94 251.971 59.8893 252.462 60.508C252.953 61.1267 253.603 61.436 254.414 61.436C255.225 61.436 255.897 61.0787 256.43 60.364C256.963 59.6387 257.23 58.636 257.23 57.356C257.23 56.0653 256.985 55.1107 256.494 54.492C256.003 53.8733 255.353 53.564 254.542 53.564ZM270.276 53.596L270.372 53.5C270.415 53.5213 270.468 53.5853 270.532 53.692C270.607 53.7987 270.65 53.8947 270.66 53.98C270.682 54.0653 270.692 54.1453 270.692 54.22C270.692 54.508 270.628 54.8013 270.5 55.1L267.428 61.5H267.268L264.292 53.5H265.412L267.86 60.124L270.34 55.1C270.468 54.876 270.532 54.6093 270.532 54.3C270.532 53.9907 270.447 53.756 270.276 53.596ZM273.208 61.5C272.77 61.5 272.434 61.404 272.2 61.212C271.976 61.02 271.858 60.828 271.848 60.636L271.832 60.364V53.5H272.952V60.364C272.952 60.6733 273.01 60.9133 273.128 61.084C273.256 61.244 273.378 61.3293 273.496 61.34L273.688 61.372H274.184V61.5H273.208ZM271.928 51.708C271.8 51.58 271.736 51.42 271.736 51.228C271.736 51.036 271.8 50.876 271.928 50.748C272.056 50.6093 272.216 50.54 272.408 50.54C272.6 50.54 272.76 50.6093 272.888 50.748C273.026 50.876 273.096 51.036 273.096 51.228C273.096 51.42 273.026 51.58 272.888 51.708C272.76 51.836 272.6 51.9 272.408 51.9C272.216 51.9 272.056 51.836 271.928 51.708ZM275.757 57.596C275.757 58.9187 275.987 59.8893 276.445 60.508C276.915 61.1267 277.528 61.436 278.285 61.436C279.352 61.436 280.301 61.276 281.133 60.956L281.181 61.068C280.328 61.3987 279.363 61.564 278.285 61.564C277.219 61.564 276.349 61.244 275.677 60.604C275.005 59.964 274.669 58.9773 274.669 57.644C274.669 56.3107 275.021 55.276 275.725 54.54C276.429 53.804 277.325 53.436 278.413 53.436C279.288 53.436 280.024 53.6973 280.621 54.22C281.219 54.7427 281.517 55.516 281.517 56.54C281.517 56.5933 281.517 56.6467 281.517 56.7H275.805C275.773 56.988 275.757 57.2867 275.757 57.596ZM280.429 56.572C280.419 55.548 280.221 54.7907 279.837 54.3C279.453 53.8093 278.957 53.564 278.349 53.564C277.741 53.564 277.197 53.8307 276.717 54.364C276.248 54.8973 275.949 55.6333 275.821 56.572H280.429ZM293.521 53.596L293.617 53.5C293.66 53.5213 293.713 53.5853 293.777 53.692C293.852 53.7987 293.895 53.8947 293.905 53.98C293.927 54.0653 293.937 54.1453 293.937 54.22C293.937 54.508 293.873 54.8013 293.745 55.1L290.833 61.5H290.673L288.369 55.308L285.553 61.5H285.393L282.417 53.5H283.537L285.985 60.124L288.289 55.116L287.697 53.5H288.817L291.265 60.124L293.585 55.1C293.713 54.876 293.777 54.6093 293.777 54.3C293.777 53.9907 293.692 53.756 293.521 53.596ZM309.567 55.34C309.567 54.6893 309.482 54.2307 309.311 53.964C309.141 53.6973 308.815 53.564 308.335 53.564C307.695 53.564 307.125 53.8307 306.623 54.364C306.133 54.8973 305.887 55.3773 305.887 55.804V61.5H304.767V55.34C304.767 54.6893 304.682 54.2307 304.511 53.964C304.341 53.6973 303.978 53.564 303.423 53.564C302.869 53.564 302.341 53.82 301.839 54.332C301.349 54.844 301.082 55.3187 301.039 55.756V61.5H299.919V53.5H301.039V55.308C301.21 54.8493 301.525 54.4227 301.983 54.028C302.442 53.6333 302.954 53.436 303.519 53.436C304.085 53.436 304.533 53.4893 304.863 53.596C305.205 53.692 305.445 53.8467 305.583 54.06C305.722 54.2733 305.807 54.46 305.839 54.62C305.871 54.78 305.887 55.004 305.887 55.292C306.058 54.8333 306.367 54.412 306.815 54.028C307.263 53.6333 307.743 53.436 308.255 53.436C308.767 53.436 309.178 53.4787 309.487 53.564C309.797 53.6493 310.026 53.7453 310.175 53.852C310.335 53.9587 310.453 54.1133 310.527 54.316C310.613 54.5187 310.661 54.684 310.671 54.812C310.682 54.94 310.687 55.1213 310.687 55.356V60.364C310.687 60.6733 310.746 60.9133 310.863 61.084C310.991 61.244 311.119 61.3293 311.247 61.34L311.423 61.372H311.919V61.5H310.943C310.506 61.5 310.17 61.404 309.935 61.212C309.711 61.02 309.594 60.828 309.583 60.636L309.567 60.364V55.34ZM316.024 61.564C314.904 61.564 313.992 61.244 313.288 60.604C312.584 59.964 312.232 58.9773 312.232 57.644C312.232 56.3107 312.594 55.276 313.32 54.54C314.056 53.804 314.984 53.436 316.104 53.436C317.234 53.436 318.152 53.756 318.856 54.396C319.56 55.036 319.912 56.0227 319.912 57.356C319.912 58.6893 319.544 59.724 318.808 60.46C318.082 61.196 317.154 61.564 316.024 61.564ZM316.136 53.564C315.325 53.564 314.653 53.9267 314.12 54.652C313.586 55.3667 313.32 56.3693 313.32 57.66C313.32 58.94 313.565 59.8893 314.056 60.508C314.546 61.1267 315.197 61.436 316.008 61.436C316.818 61.436 317.49 61.0787 318.024 60.364C318.557 59.6387 318.824 58.636 318.824 57.356C318.824 56.0653 318.578 55.1107 318.088 54.492C317.597 53.8733 316.946 53.564 316.136 53.564ZM323.928 54.188V53.852C323.448 54.044 323.011 54.4333 322.616 55.02C322.222 55.596 322.014 56.14 321.992 56.652V61.5H320.872V53.5H321.992V56.044C322.163 55.4253 322.488 54.844 322.968 54.3C323.448 53.7453 323.992 53.4573 324.6 53.436H324.664C324.878 53.436 325.054 53.5107 325.192 53.66C325.342 53.7987 325.416 53.9747 325.416 54.188C325.416 54.4013 325.342 54.5773 325.192 54.716C325.054 54.8547 324.878 54.924 324.664 54.924C324.451 54.924 324.275 54.8547 324.136 54.716C323.998 54.5773 323.928 54.4013 323.928 54.188ZM327.226 57.596C327.226 58.9187 327.455 59.8893 327.914 60.508C328.383 61.1267 328.997 61.436 329.754 61.436C330.821 61.436 331.77 61.276 332.602 60.956L332.65 61.068C331.797 61.3987 330.831 61.564 329.754 61.564C328.687 61.564 327.818 61.244 327.146 60.604C326.474 59.964 326.138 58.9773 326.138 57.644C326.138 56.3107 326.49 55.276 327.194 54.54C327.898 53.804 328.794 53.436 329.882 53.436C330.757 53.436 331.493 53.6973 332.09 54.22C332.687 54.7427 332.986 55.516 332.986 56.54C332.986 56.5933 332.986 56.6467 332.986 56.7H327.274C327.242 56.988 327.226 57.2867 327.226 57.596ZM331.898 56.572C331.887 55.548 331.69 54.7907 331.306 54.3C330.922 53.8093 330.426 53.564 329.818 53.564C329.21 53.564 328.666 53.8307 328.186 54.364C327.717 54.8973 327.418 55.6333 327.29 56.572H331.898ZM342.696 61.564C341.576 61.564 340.664 61.244 339.96 60.604C339.256 59.964 338.904 58.9773 338.904 57.644C338.904 56.3107 339.266 55.276 339.992 54.54C340.728 53.804 341.656 53.436 342.776 53.436C343.906 53.436 344.824 53.756 345.528 54.396C346.232 55.036 346.584 56.0227 346.584 57.356C346.584 58.6893 346.216 59.724 345.48 60.46C344.754 61.196 343.826 61.564 342.696 61.564ZM342.808 53.564C341.997 53.564 341.325 53.9267 340.792 54.652C340.258 55.3667 339.992 56.3693 339.992 57.66C339.992 58.94 340.237 59.8893 340.728 60.508C341.218 61.1267 341.869 61.436 342.68 61.436C343.49 61.436 344.162 61.0787 344.696 60.364C345.229 59.6387 345.496 58.636 345.496 57.356C345.496 56.0653 345.25 55.1107 344.76 54.492C344.269 53.8733 343.618 53.564 342.808 53.564ZM354.184 61.5C353.747 61.5 353.411 61.404 353.176 61.212C352.952 61.02 352.835 60.828 352.824 60.636L352.808 60.364V55.34C352.808 54.4973 352.59 53.9587 352.152 53.724C351.928 53.6173 351.651 53.564 351.32 53.564C350.638 53.564 350.024 53.836 349.48 54.38C348.936 54.9133 348.664 55.3933 348.664 55.82V61.5H347.544V53.5H348.664V55.324C348.846 54.8653 349.182 54.4387 349.672 54.044C350.163 53.6387 350.702 53.436 351.288 53.436C351.875 53.436 352.35 53.4947 352.712 53.612C353.086 53.7187 353.358 53.8733 353.528 54.076C353.795 54.4067 353.928 54.8333 353.928 55.356V60.364C353.928 60.6733 353.987 60.9133 354.104 61.084C354.232 61.244 354.36 61.3293 354.488 61.34L354.664 61.372H355.16V61.5H354.184ZM362.379 61.5C361.942 61.5 361.606 61.404 361.371 61.212C361.147 61.02 361.03 60.828 361.019 60.636L361.003 60.364V53.5H362.123V60.364C362.123 60.6733 362.182 60.9133 362.299 61.084C362.427 61.244 362.55 61.3293 362.667 61.34L362.859 61.372H363.355V61.5H362.379ZM361.099 51.708C360.971 51.58 360.907 51.42 360.907 51.228C360.907 51.036 360.971 50.876 361.099 50.748C361.227 50.6093 361.387 50.54 361.579 50.54C361.771 50.54 361.931 50.6093 362.059 50.748C362.198 50.876 362.267 51.036 362.267 51.228C362.267 51.42 362.198 51.58 362.059 51.708C361.931 51.836 361.771 51.9 361.579 51.9C361.387 51.9 361.227 51.836 361.099 51.708ZM364.558 53.628V53.5H364.894V51.9H366.014V53.5H368.462V53.628H366.014V59.452C366.014 60.1453 366.089 60.6467 366.238 60.956C366.398 61.2653 366.723 61.42 367.214 61.42C367.715 61.42 368.222 61.3187 368.734 61.116L368.782 61.244C368.249 61.4467 367.635 61.548 366.942 61.548C366.259 61.548 365.747 61.4093 365.406 61.132C365.065 60.844 364.894 60.2787 364.894 59.436V53.628H364.558ZM370.302 61.564C370.163 61.564 370.04 61.516 369.934 61.42C369.838 61.3133 369.79 61.1907 369.79 61.052C369.79 60.9027 369.838 60.78 369.934 60.684C370.03 60.588 370.147 60.54 370.286 60.54C370.435 60.54 370.558 60.5933 370.654 60.7C370.76 60.796 370.814 60.9133 370.814 61.052C370.814 61.1907 370.76 61.3133 370.654 61.42C370.558 61.516 370.44 61.564 370.302 61.564Z" fill="black"/>
<path d="M411.045 98.5L365.045 72.5H277.045M277.045 72.5L323.045 98.5V151.5M277.045 72.5H135.045M135.045 72.5H110.045L78.0449 45.5V0.5M135.045 72.5L19.0449 135.5L1.04492 112.5" stroke="black" stroke-dasharray="12 12"/>
<path d="M631.045 202.5L628.057 207.44L633.83 207.557L631.045 202.5ZM392.045 331.294L392.028 331.793C393.902 331.856 395.82 331.905 397.779 331.939L397.788 331.44L397.797 330.94C395.843 330.905 393.93 330.856 392.062 330.794L392.045 331.294ZM409.373 331.474L409.378 331.974C413.129 331.932 416.991 331.84 420.947 331.691L420.928 331.192L420.909 330.692C416.962 330.84 413.109 330.932 409.367 330.974L409.373 331.474ZM432.503 330.611L432.534 331.11C436.33 330.872 440.19 330.583 444.103 330.239L444.059 329.741L444.015 329.243C440.111 329.586 436.259 329.874 432.471 330.112L432.503 330.611ZM455.561 328.585L455.618 329.082C459.418 328.652 463.253 328.169 467.11 327.631L467.041 327.136L466.972 326.641C463.123 327.177 459.297 327.659 455.505 328.088L455.561 328.585ZM478.483 325.383L478.566 325.876C482.36 325.242 486.165 324.552 489.97 323.803L489.874 323.313L489.777 322.822C485.982 323.569 482.186 324.257 478.401 324.89L478.483 325.383ZM501.196 320.906L501.308 321.394C505.074 320.532 508.828 319.61 512.561 318.625L512.434 318.141L512.306 317.658C508.584 318.64 504.84 319.56 501.085 320.419L501.196 320.906ZM523.571 314.988L523.716 315.466C527.429 314.34 531.109 313.147 534.745 311.883L534.581 311.411L534.417 310.939C530.794 312.198 527.126 313.387 523.425 314.509L523.571 314.988ZM545.429 307.372L545.614 307.837C549.231 306.396 552.79 304.878 556.28 303.28L556.072 302.826L555.864 302.371C552.39 303.961 548.846 305.473 545.244 306.908L545.429 307.372ZM566.451 297.72L566.685 298.162C570.134 296.34 573.496 294.429 576.758 292.425L576.496 291.999L576.234 291.573C572.992 293.565 569.648 295.465 566.218 297.278L566.451 297.72ZM586.141 285.584L586.433 285.989C589.604 283.702 592.653 281.31 595.564 278.81L595.238 278.431L594.913 278.052C592.024 280.532 588.998 282.906 585.848 285.178L586.141 285.584ZM603.646 270.494L604.006 270.841C606.705 268.031 609.24 265.101 611.597 262.048L611.201 261.743L610.806 261.437C608.472 264.46 605.96 267.363 603.285 270.148L603.646 270.494ZM617.723 252.194L618.152 252.451C620.135 249.14 621.922 245.701 623.496 242.129L623.039 241.928L622.581 241.726C621.024 245.259 619.257 248.661 617.294 251.937L617.723 252.194ZM627.03 231.058L627.51 231.2C628.592 227.558 629.468 223.792 630.124 219.901L629.631 219.818L629.138 219.735C628.489 223.586 627.622 227.312 626.551 230.916L627.03 231.058ZM630.891 208.341L631.39 208.368C631.414 207.92 631.435 207.47 631.453 207.019L630.954 206.999L630.454 206.979C630.436 207.425 630.415 207.871 630.391 208.315L630.891 208.341Z" fill="black"/>
<path d="M599.773 294.684C599.645 294.94 599.41 295.185 599.069 295.42C598.728 295.644 598.226 295.756 597.565 295.756C596.914 295.756 596.274 295.516 595.645 295.036C595.026 294.556 594.717 293.841 594.717 292.892C594.717 291.943 595.016 291.127 595.613 290.444C596.21 289.761 597.069 289.42 598.189 289.42C600.237 289.42 601.261 290.673 601.261 293.18C601.261 294.353 600.957 295.425 600.349 296.396C599.656 297.516 598.621 298.289 597.245 298.716C596.488 298.961 595.634 299.084 594.685 299.084L594.701 298.972C596.589 298.972 597.965 298.364 598.829 297.148C599.298 296.487 599.613 295.665 599.773 294.684ZM599.853 294.284C599.949 293.623 599.997 293.015 599.997 292.46C599.997 291.521 599.816 290.801 599.453 290.3C599.101 289.799 598.637 289.548 598.061 289.548C597.485 289.548 596.994 289.868 596.589 290.508C596.194 291.148 595.997 291.948 595.997 292.908C595.997 293.857 596.178 294.551 596.541 294.988C596.914 295.415 597.362 295.628 597.885 295.628C598.237 295.628 598.573 295.527 598.893 295.324C599.224 295.121 599.464 294.919 599.613 294.716C599.773 294.503 599.853 294.359 599.853 294.284ZM604.173 292.3C604.301 292.044 604.536 291.804 604.877 291.58C605.218 291.345 605.714 291.228 606.365 291.228C607.026 291.228 607.666 291.468 608.285 291.948C608.914 292.428 609.229 293.143 609.229 294.092C609.229 295.041 608.93 295.857 608.333 296.54C607.736 297.223 606.877 297.564 605.757 297.564C603.709 297.564 602.685 296.311 602.685 293.804C602.685 292.631 602.984 291.559 603.581 290.588C604.285 289.468 605.32 288.689 606.685 288.252C607.453 288.017 608.312 287.9 609.261 287.9L609.245 288.012C607.357 288.012 605.981 288.62 605.117 289.836C604.648 290.497 604.333 291.319 604.173 292.3ZM604.093 292.7C603.997 293.361 603.949 293.969 603.949 294.524C603.949 295.463 604.125 296.183 604.477 296.684C604.84 297.185 605.309 297.436 605.885 297.436C606.461 297.436 606.946 297.116 607.341 296.476C607.746 295.836 607.949 295.041 607.949 294.092C607.949 293.132 607.762 292.439 607.389 292.012C607.026 291.575 606.584 291.356 606.061 291.356C605.709 291.356 605.368 291.457 605.037 291.66C604.717 291.863 604.477 292.071 604.317 292.284C604.168 292.487 604.093 292.625 604.093 292.7ZM610.689 293.5C610.689 292.38 611.11 291.425 611.953 290.636C612.806 289.836 613.862 289.436 615.121 289.436C616.379 289.436 617.403 289.767 618.193 290.428C618.993 291.079 619.393 292.103 619.393 293.5C619.393 294.62 618.966 295.58 618.113 296.38C617.27 297.169 616.219 297.564 614.961 297.564C613.702 297.564 612.673 297.239 611.873 296.588C611.083 295.927 610.689 294.897 610.689 293.5ZM611.969 293.5C611.969 294.844 612.251 295.836 612.817 296.476C613.382 297.116 614.107 297.436 614.993 297.436C615.878 297.436 616.619 297.052 617.217 296.284C617.814 295.516 618.113 294.588 618.113 293.5C618.113 292.156 617.83 291.164 617.265 290.524C616.699 289.884 615.974 289.564 615.089 289.564C614.203 289.564 613.462 289.948 612.865 290.716C612.267 291.484 611.969 292.412 611.969 293.5Z" fill="black"/>
</svg>
